<svg width="296" height="242" viewBox="0 0 296 242" fill="none" xmlns="http://www.w3.org/2000/svg">
<g clip-path="url(#clip0_50_187)">
<path d="M148.363 6.77533C148.349 7.56566 148.186 8.34548 147.882 9.07023C147.578 9.79499 147.14 10.4505 146.592 10.9993C146.044 11.5481 145.398 11.9794 144.69 12.2686C143.981 12.5579 143.225 12.6994 142.464 12.685H115.098C114.999 12.6824 114.9 12.6797 114.801 12.6718C114.544 12.6546 114.29 12.6184 114.038 12.5635V2.50285C114.038 2.10031 114.156 1.70732 114.377 1.3765C114.598 1.04568 114.911 0.792832 115.274 0.651794H142.672C144.208 0.681953 145.67 1.34361 146.737 2.49159C147.803 3.63958 148.388 5.18015 148.363 6.77533Z" fill="white"/>
<path d="M292.841 1.38208e-05H116.355C115.974 -0.00115282 115.597 0.0715489 115.243 0.214366C114.641 0.448012 114.123 0.866893 113.757 1.41493C113.391 1.96297 113.195 2.61401 113.196 3.28088V203.195C113.196 204.065 113.529 204.899 114.121 205.514C114.714 206.13 115.517 206.475 116.355 206.476H292.841C293.679 206.475 294.482 206.13 295.074 205.514C295.667 204.899 296 204.065 296 203.195V3.28088C296 2.41083 295.667 1.57652 295.074 0.961304C294.482 0.346092 293.679 0.000329185 292.841 1.38208e-05ZM294.736 203.195C294.736 203.717 294.536 204.217 294.18 204.586C293.825 204.955 293.343 205.163 292.841 205.163H116.355C115.852 205.163 115.371 204.955 115.015 204.586C114.66 204.217 114.46 203.717 114.459 203.195V3.28088C114.46 2.75903 114.66 2.25879 115.015 1.88979C115.371 1.5208 115.852 1.31314 116.355 1.31236H292.841C293.343 1.31314 293.825 1.5208 294.18 1.88979C294.536 2.25879 294.736 2.75903 294.736 3.28088V203.195Z" fill="white"/>
<path d="M199.172 68.6888C201.461 68.6888 203.318 66.761 203.318 64.383C203.318 62.0049 201.461 60.0771 199.172 60.0771C196.882 60.0771 195.026 62.0049 195.026 64.383C195.026 66.761 196.882 68.6888 199.172 68.6888Z" fill="#1C5739"/>
<path d="M216.447 68.6888C218.736 68.6888 220.593 66.761 220.593 64.383C220.593 62.0049 218.736 60.0771 216.447 60.0771C214.157 60.0771 212.301 62.0049 212.301 64.383C212.301 66.761 214.157 68.6888 216.447 68.6888Z" fill="#1C5739"/>
<path d="M164.622 104.27C166.912 104.27 168.768 102.343 168.768 99.9646C168.768 97.5866 166.912 95.6588 164.622 95.6588C162.332 95.6588 160.476 97.5866 160.476 99.9646C160.476 102.343 162.332 104.27 164.622 104.27Z" fill="#1C5739"/>
<path d="M181.897 104.27C184.187 104.27 186.043 102.343 186.043 99.9646C186.043 97.5866 184.187 95.6588 181.897 95.6588C179.607 95.6588 177.751 97.5866 177.751 99.9646C177.751 102.343 179.607 104.27 181.897 104.27Z" fill="#1C5739"/>
<path d="M199.172 122.061C201.461 122.061 203.318 120.134 203.318 117.756C203.318 115.377 201.461 113.45 199.172 113.45C196.882 113.45 195.026 115.377 195.026 117.756C195.026 120.134 196.882 122.061 199.172 122.061Z" fill="#1C5739"/>
<path d="M216.447 122.061C218.736 122.061 220.593 120.134 220.593 117.756C220.593 115.377 218.736 113.45 216.447 113.45C214.157 113.45 212.301 115.377 212.301 117.756C212.301 120.134 214.157 122.061 216.447 122.061Z" fill="#1C5739"/>
<path d="M233.721 122.061C236.011 122.061 237.867 120.134 237.867 117.756C237.867 115.377 236.011 113.45 233.721 113.45C231.432 113.45 229.575 115.377 229.575 117.756C229.575 120.134 231.432 122.061 233.721 122.061Z" fill="#1C5739"/>
<path d="M129.834 3.18127C129.741 3.27725 129.69 3.40743 129.69 3.54317C129.69 3.67891 129.741 3.80909 129.834 3.90509L131.95 6.10238H126.733C126.602 6.10277 126.477 6.15688 126.385 6.25282C126.293 6.34877 126.241 6.47873 126.241 6.61422C126.241 6.74971 126.293 6.87966 126.385 6.97561C126.477 7.07156 126.602 7.12566 126.733 7.12606H131.95L129.834 9.3233C129.741 9.41929 129.69 9.54948 129.69 9.68523C129.69 9.82097 129.741 9.95116 129.834 10.0471C129.926 10.1431 130.052 10.1971 130.182 10.1971C130.313 10.1971 130.438 10.1431 130.531 10.0472L133.488 6.97614C133.58 6.88015 133.632 6.74996 133.632 6.61422C133.632 6.47847 133.58 6.34828 133.488 6.25229L130.531 3.18127C130.438 3.08529 130.313 3.03137 130.182 3.03137C130.052 3.03137 129.926 3.08529 129.834 3.18127Z" fill="white"/>
<path d="M254.783 73.5693H143.46C143.029 73.5693 142.68 73.3734 142.68 73.1318C142.68 72.8903 143.029 72.6944 143.46 72.6944H254.783C255.214 72.6944 255.563 72.8903 255.563 73.1318C255.563 73.3734 255.214 73.5693 254.783 73.5693Z" fill="white"/>
<path d="M254.783 54.2436H143.46C143.029 54.2436 142.68 54.0477 142.68 53.8062C142.68 53.5646 143.029 53.3687 143.46 53.3687H254.783C255.214 53.3687 255.563 53.5646 255.563 53.8062C255.563 54.0477 255.214 54.2436 254.783 54.2436Z" fill="white"/>
<path d="M255.142 91.6196H143.201C143.09 91.6196 142.983 91.5735 142.904 91.4915C142.825 91.4094 142.78 91.2982 142.78 91.1821C142.78 91.0661 142.825 90.9549 142.904 90.8728C142.983 90.7908 143.09 90.7447 143.201 90.7447H255.142C255.254 90.7447 255.361 90.7908 255.44 90.8728C255.519 90.9549 255.563 91.0661 255.563 91.1821C255.563 91.2982 255.519 91.4094 255.44 91.4915C255.361 91.5735 255.254 91.6196 255.142 91.6196Z" fill="white"/>
<path d="M255.142 109.118H143.201C143.09 109.118 142.983 109.071 142.904 108.989C142.825 108.907 142.78 108.796 142.78 108.68C142.78 108.564 142.825 108.453 142.904 108.371C142.983 108.289 143.09 108.243 143.201 108.243H255.142C255.254 108.243 255.361 108.289 255.44 108.371C255.519 108.453 255.563 108.564 255.563 108.68C255.563 108.796 255.519 108.907 255.44 108.989C255.361 109.071 255.254 109.118 255.142 109.118Z" fill="white"/>
<path d="M255.142 127.053H143.201C143.09 127.053 142.983 127.007 142.904 126.925C142.825 126.843 142.78 126.732 142.78 126.615C142.78 126.499 142.825 126.388 142.904 126.306C142.983 126.224 143.09 126.178 143.201 126.178H255.142C255.254 126.178 255.361 126.224 255.44 126.306C255.519 126.388 255.563 126.499 255.563 126.615C255.563 126.732 255.519 126.843 255.44 126.925C255.361 127.007 255.254 127.053 255.142 127.053Z" fill="white"/>
<path d="M242.085 126.151V54.0773C242.085 53.9275 242.274 53.8061 242.507 53.8061C242.739 53.8061 242.928 53.9275 242.928 54.0773V126.151C242.928 126.301 242.739 126.423 242.507 126.423C242.274 126.423 242.085 126.301 242.085 126.151Z" fill="white"/>
<path d="M224.816 126.151V54.0773C224.816 53.9275 225.004 53.8061 225.237 53.8061C225.47 53.8061 225.658 53.9275 225.658 54.0773V126.151C225.658 126.301 225.47 126.423 225.237 126.423C225.004 126.423 224.816 126.301 224.816 126.151Z" fill="white"/>
<path d="M207.546 126.151V54.0773C207.546 53.9275 207.735 53.8061 207.967 53.8061C208.2 53.8061 208.389 53.9275 208.389 54.0773V126.151C208.389 126.301 208.2 126.423 207.967 126.423C207.735 126.423 207.546 126.301 207.546 126.151Z" fill="white"/>
<path d="M190.698 126.151V54.0773C190.698 53.9275 190.887 53.8061 191.119 53.8061C191.352 53.8061 191.54 53.9275 191.54 54.0773V126.151C191.54 126.301 191.352 126.423 191.119 126.423C190.887 126.423 190.698 126.301 190.698 126.151Z" fill="white"/>
<path d="M173.007 144.456V54.146C173.031 54.0488 173.085 53.9626 173.162 53.9011C173.238 53.8396 173.332 53.8062 173.428 53.8062C173.525 53.8062 173.619 53.8396 173.695 53.9011C173.771 53.9626 173.826 54.0488 173.85 54.146V144.456C173.826 144.553 173.771 144.639 173.695 144.701C173.619 144.762 173.525 144.795 173.428 144.795C173.332 144.795 173.238 144.762 173.162 144.701C173.085 144.639 173.031 144.553 173.007 144.456Z" fill="white"/>
<path d="M155.316 144.456V54.146C155.34 54.0488 155.395 53.9626 155.471 53.9011C155.547 53.8396 155.641 53.8062 155.738 53.8062C155.834 53.8062 155.928 53.8396 156.004 53.9011C156.081 53.9626 156.135 54.0488 156.159 54.146V144.456C156.135 144.553 156.081 144.639 156.004 144.701C155.928 144.762 155.834 144.795 155.738 144.795C155.641 144.795 155.547 144.762 155.471 144.701C155.395 144.639 155.34 144.553 155.316 144.456Z" fill="white"/>
<path d="M143.201 144.989C143.09 144.989 142.982 144.943 142.903 144.861C142.824 144.779 142.779 144.668 142.779 144.552C142.779 144.436 142.823 144.325 142.902 144.242C142.981 144.16 143.088 144.114 143.2 144.114L186.063 143.921C186.174 143.923 186.279 143.969 186.358 144.051C186.437 144.132 186.483 144.241 186.486 144.356C186.486 144.414 186.475 144.471 186.454 144.524C186.434 144.577 186.403 144.625 186.364 144.666C186.325 144.707 186.279 144.739 186.228 144.761C186.177 144.784 186.122 144.795 186.066 144.795L143.203 144.989H143.201Z" fill="white"/>
<path d="M174.539 35.0738C174.427 35.0739 174.32 35.0279 174.241 34.9459C174.162 34.864 174.118 34.7527 174.118 34.6367C174.118 34.5207 174.162 34.4094 174.241 34.3273C174.32 34.2452 174.427 34.199 174.539 34.1989L234.656 34.121H234.656C234.768 34.1209 234.875 34.1669 234.954 34.2489C235.033 34.3308 235.078 34.4421 235.078 34.5581C235.078 34.6741 235.034 34.7854 234.955 34.8675C234.876 34.9496 234.769 34.9958 234.657 34.9959L174.54 35.0738H174.539Z" fill="white"/>
<path d="M194.895 177.693C193.226 177.693 191.594 177.179 190.207 176.216C188.819 175.253 187.737 173.884 187.098 172.282C186.46 170.681 186.293 168.919 186.618 167.219C186.944 165.518 187.748 163.957 188.928 162.731C190.108 161.505 191.612 160.671 193.249 160.332C194.886 159.994 196.583 160.168 198.125 160.831C199.667 161.494 200.985 162.618 201.912 164.059C202.839 165.5 203.334 167.195 203.334 168.928C203.334 170.079 203.116 171.219 202.692 172.282C202.268 173.346 201.646 174.312 200.862 175.126C200.079 175.94 199.149 176.585 198.125 177.026C197.101 177.466 196.003 177.693 194.895 177.693Z" fill="white"/>
<path d="M198.225 168.064H195.728V165.47C195.728 165.241 195.64 165.021 195.484 164.859C195.328 164.697 195.116 164.606 194.895 164.606C194.674 164.606 194.463 164.697 194.306 164.859C194.15 165.021 194.063 165.241 194.063 165.47V168.064H191.565C191.344 168.064 191.133 168.155 190.977 168.317C190.82 168.479 190.733 168.699 190.733 168.928C190.733 169.158 190.82 169.378 190.977 169.54C191.133 169.702 191.344 169.793 191.565 169.793H194.063V172.387C194.062 172.5 194.084 172.613 194.125 172.718C194.167 172.823 194.228 172.919 194.306 172.999C194.383 173.08 194.475 173.144 194.576 173.187C194.677 173.231 194.786 173.253 194.895 173.253C195.005 173.253 195.113 173.231 195.214 173.187C195.315 173.144 195.407 173.08 195.484 172.999C195.562 172.919 195.623 172.823 195.665 172.718C195.706 172.613 195.728 172.5 195.728 172.387V169.793H198.225C198.446 169.793 198.657 169.702 198.814 169.54C198.97 169.378 199.057 169.158 199.057 168.928C199.057 168.699 198.97 168.479 198.814 168.317C198.657 168.155 198.446 168.064 198.225 168.064Z" fill="white"/>
<path d="M214.271 177.693C212.602 177.693 210.97 177.179 209.582 176.216C208.194 175.253 207.113 173.884 206.474 172.282C205.835 170.681 205.668 168.919 205.994 167.219C206.319 165.518 207.123 163.957 208.303 162.731C209.484 161.505 210.987 160.671 212.624 160.332C214.261 159.994 215.958 160.168 217.5 160.831C219.042 161.494 220.36 162.618 221.288 164.059C222.215 165.5 222.71 167.195 222.71 168.928C222.71 170.079 222.492 171.219 222.067 172.282C221.643 173.346 221.022 174.312 220.238 175.126C219.454 175.94 218.524 176.585 217.5 177.026C216.476 177.466 215.379 177.693 214.271 177.693Z" fill="white"/>
<path d="M218.542 172.658L216.344 169.985C216.858 169.229 217.082 168.3 216.97 167.381C216.858 166.462 216.42 165.62 215.74 165.02C215.061 164.42 214.189 164.106 213.298 164.14C212.407 164.174 211.56 164.553 210.925 165.202C210.289 165.852 209.91 166.725 209.863 167.65C209.816 168.575 210.104 169.484 210.67 170.2C211.237 170.915 212.04 171.385 212.923 171.516C213.806 171.647 214.704 171.43 215.441 170.908L217.581 173.51C217.69 173.642 217.845 173.723 218.011 173.736C218.178 173.749 218.343 173.693 218.47 173.581C218.597 173.468 218.676 173.308 218.689 173.135C218.703 172.962 218.65 172.791 218.542 172.658ZM211.112 167.835C211.112 167.359 211.247 166.894 211.502 166.498C211.757 166.102 212.118 165.794 212.542 165.612C212.965 165.43 213.431 165.382 213.88 165.475C214.33 165.568 214.742 165.797 215.066 166.134C215.39 166.47 215.611 166.899 215.7 167.365C215.79 167.832 215.744 168.316 215.569 168.756C215.393 169.195 215.096 169.571 214.715 169.835C214.334 170.1 213.886 170.241 213.428 170.241C212.814 170.24 212.225 169.986 211.791 169.535C211.357 169.084 211.112 168.473 211.112 167.835Z" fill="white"/>
<path d="M174.539 178.557C174.427 178.557 174.32 178.511 174.241 178.429C174.162 178.347 174.118 178.236 174.118 178.12C174.118 178.004 174.162 177.893 174.241 177.811C174.32 177.728 174.427 177.682 174.539 177.682L234.656 177.604H234.656C234.768 177.604 234.875 177.65 234.954 177.732C235.033 177.814 235.078 177.925 235.078 178.041C235.078 178.157 235.034 178.268 234.955 178.351C234.876 178.433 234.769 178.479 234.657 178.479L174.54 178.557H174.539Z" fill="white"/>
<path d="M97.607 235.79L102.98 235.79L105.537 214.266L97.6061 214.266L97.607 235.79Z" fill="#FFB6B6"/>
<path d="M96.2385 233.967V241.198H113.563V240.971C113.562 239.113 112.852 237.332 111.587 236.019C110.323 234.706 108.608 233.968 106.819 233.967L103.652 231.474L103.487 231.544L97.7506 233.967H96.2385Z" fill="#2F2E41"/>
<path d="M49.0573 228.535L53.8662 231.024L65.3993 212.945L58.3015 209.271L49.0573 228.535Z" fill="#FFB6B6"/>
<path d="M45.5082 232.742L61.0129 240.765L61.1097 240.564C61.5053 239.741 61.7409 238.845 61.8029 237.928C61.865 237.011 61.7524 236.089 61.4716 235.217C61.1907 234.345 60.7471 233.539 60.1661 232.845C59.5851 232.151 58.878 231.582 58.0854 231.172L56.3206 227.476L56.1352 227.462L49.9688 226.968L49.8424 226.902L48.6125 226.268L45.5082 232.742Z" fill="#2F2E41"/>
<path d="M101.251 120.1L71.6231 121.177L71.4167 120.865C71.4167 120.865 68.8894 126.989 68.8894 132.239C68.8894 133.984 70.0582 145.399 69.4641 147.559C69.3902 147.828 69.8986 148.486 69.7319 149.737C69.6237 150.548 69.0267 149.924 68.8894 151.049C68.791 151.856 69.8418 152.302 69.7319 153.236C69.6118 154.257 68.1663 157.562 68.0362 158.697C66.6509 170.782 64.8066 188.29 64.8066 188.29C64.8066 188.29 57.399 208.895 55.832 209.23C53.2017 209.791 51.426 214.758 52.8835 215.791C53.5776 216.283 62.548 219.592 62.548 219.592C63.0408 219.685 64.5828 218.882 63.6005 216.982C63.4197 216.632 64.4981 217.522 64.6774 217.104C64.868 216.659 64.4938 214.887 64.7121 214.393C66.6725 209.956 69.6824 203.807 72.5347 200.649C76.7492 195.985 79.4182 190.043 80.1522 183.692L86.6946 146.016L88.9369 156.582L90.7923 158.486L90.2833 162.925L90.3711 167.235L95.0044 185.17C95.0044 185.17 95.6992 218.665 94.5831 219.728C93.9787 220.305 91.4137 227.4 96.268 228.04L105.087 227.333C105.087 227.333 106.276 224.733 105.681 223.807C105.087 222.881 105.123 223.134 105.848 221.619C106.573 220.105 106.276 217.538 106.276 217.538C107.431 205.476 107.887 193.352 107.641 181.233C107.198 161.328 104.519 138.461 104.519 137.995C104.497 137.518 104.581 137.043 104.766 136.607V135.35L103.628 130.898L101.251 120.1Z" fill="#2F2E41"/>
<path d="M62.8932 131.292C62.6448 130.851 62.4924 130.359 62.4469 129.85C62.4014 129.341 62.4639 128.829 62.6299 128.348C62.7958 127.867 63.0613 127.43 63.4076 127.067C63.7539 126.704 64.1726 126.424 64.6342 126.248L64.4213 104.139L69.6722 107.589L69.0687 128.543C69.3029 129.368 69.2376 130.254 68.8851 131.032C68.5327 131.81 67.9176 132.427 67.1564 132.766C66.3952 133.105 65.5408 133.142 64.755 132.87C63.9693 132.599 63.3069 132.037 62.8932 131.292Z" fill="#FFB8B8"/>
<path d="M64.0919 122.024L64.5389 122.001L64.5921 122.003L66.2458 121.997L68.9695 121.991L69.1667 121.988L69.2556 122.005L70.1854 122.173L70.2239 121.914L72.0364 118.319L73.4298 116.328L72.9228 113.982L71.9229 112.689L73.6212 110.552L73.8358 109.496L75.2573 102.554L79.969 79.5268L79.9693 79.513L80.0683 79.0244L81.6006 71.5438L81.1286 69.6628L80.6025 67.5977C80.266 66.2866 79.486 65.1452 78.4054 64.3826C77.9364 64.053 77.4202 63.8026 76.8759 63.6407C76.1821 63.4273 75.4533 63.365 74.7353 63.4577L74.7272 63.4603C74.3198 63.5129 73.9194 63.6134 73.5338 63.7598L73.3803 63.8221C73.1668 63.912 72.959 64.0159 72.7582 64.1331C72.1358 64.4925 71.5885 64.9769 71.1481 65.5581C70.7077 66.1393 70.383 66.8057 70.1929 67.5184L65.2005 73.294L64.3224 76.5621L64.04 77.6116L63.135 83.2066L63.1485 105.225L62.9873 106.222L62.7582 111.75L63.6535 113.017L62.642 114.553L62.6073 115.396L62.6005 115.613L63.9515 117.038L64.0377 120.111L64.0919 122.024Z" fill="#3F3D56"/>
<path d="M68.9688 127.297C76.4498 128.641 81.4664 128.13 84.5535 123.36C88.5811 118.034 95.9055 124.323 102.085 126.662L102.818 125.839L104.065 124.444L102.919 123.096L104.065 120.498L103.109 117.292L101.887 117.06L102.216 114.299L102.73 112.685L101.222 110.966L99.9414 106.675L100.864 97.6938C102.126 85.3837 99.6803 72.97 93.8634 62.1643L90.3632 58.9009L88.91 57.5448L86.9598 53.7653L84.9001 54.0146L79.3233 54.6839L79.1337 55.1563L77.7648 58.5859L72.7918 64.1338C72.0885 64.9185 71.554 65.8497 71.2241 66.8655C70.8941 67.8813 70.7762 68.9584 70.8781 70.0252L71.0213 71.5213L71.1266 72.5974L71.6236 77.7768L73.6496 98.9362L73.8013 100.06L75.4313 112.226C72.7819 114.886 72.6207 114.305 71.496 118.986C71.3697 119.507 69.9039 120.666 69.8112 121.173C69.6806 121.891 68.9688 127.297 68.9688 127.297Z" fill="#3F3D56"/>
<path d="M84.1581 51.5356C89.5076 51.5356 93.8443 47.0318 93.8443 41.476C93.8443 35.9202 89.5076 31.4163 84.1581 31.4163C78.8086 31.4163 74.4719 35.9202 74.4719 41.476C74.4719 47.0318 78.8086 51.5356 84.1581 51.5356Z" fill="#FFB6B6"/>
<path d="M74.0241 33.9033C75.3242 32.4974 77.4012 31.804 79.1647 32.4712C79.5591 31.2991 80.2555 30.262 81.1782 29.4725C82.1009 28.6831 83.2144 28.1717 84.3975 27.9941C85.5806 27.8164 86.788 27.9792 87.8882 28.4648C88.9884 28.9504 89.9392 29.7402 90.6371 30.7482C90.9562 30.5994 91.3069 30.5386 91.6553 30.5719C92.0036 30.6051 92.3378 30.7312 92.6255 30.938C93.1966 31.3598 93.6568 31.9236 93.9637 32.5779C94.7556 34.1404 95.1248 35.8966 95.0318 37.6597C94.9389 39.4228 94.3874 41.1267 93.436 42.59C93.815 41.7951 92.7492 43.1642 91.7105 42.8055C90.8182 42.5626 87.1531 40.1218 86.2383 40.2452C85.3238 40.3686 85.027 39.6026 84.1323 39.3703C83.256 39.0792 81.0189 42.8417 80.5705 45.3312C80.4856 45.803 80.2793 46.3892 79.8172 46.3999C79.2482 46.4132 79.0778 45.5668 78.5979 45.249C78.3717 45.1295 78.1096 45.1059 77.867 45.1831C77.6243 45.2603 77.42 45.4324 77.2971 45.663C77.1849 45.9 77.1288 46.1614 77.1336 46.4255C77.1383 46.6895 77.2037 46.9486 77.3244 47.1811C77.5696 47.6432 77.8851 48.0612 78.2587 48.4188L78.0101 48.5607C77.7654 48.7427 77.4672 48.8307 77.1668 48.8096C76.8664 48.7884 76.5825 48.6593 76.3636 48.4446C75.4386 48.878 72.9224 46.4335 73.2564 44.9545C72.5539 43.1417 72.1697 41.2128 72.1221 39.2593C72.0833 37.2888 72.7627 35.3758 74.0241 33.9033Z" fill="#2F2E41"/>
<path d="M145.078 93.8665C144.609 94.0201 144.113 94.0649 143.625 93.9979C143.138 93.9309 142.67 93.7537 142.256 93.4787C141.841 93.2038 141.49 92.8377 141.226 92.4064C140.962 91.9751 140.793 91.489 140.73 90.9824L119.927 86.2832L124.333 81.7332L143.871 87.0025C144.697 86.9487 145.514 87.2116 146.166 87.7415C146.819 88.2714 147.261 89.0314 147.41 89.8775C147.559 90.7236 147.404 91.597 146.974 92.3322C146.544 93.0674 145.87 93.6133 145.078 93.8665Z" fill="#FFB8B8"/>
<path d="M88.8587 62.6769C87.6529 62.7226 86.4961 63.1843 85.5712 63.989C85.0594 64.4297 84.6327 64.967 84.3135 65.5726C83.9622 66.2295 83.7431 66.9537 83.6693 67.7012L83.6696 67.7056C83.5617 68.8065 83.7703 69.9159 84.2689 70.8938C84.7675 71.8718 85.5338 72.6744 86.4712 73.2006L93.3242 77.0575L94.1922 77.545C100.031 83.7257 109.877 86.9566 121.204 89.1001L127.716 90.9501L129.905 90.1062L130.435 92.2678L132.615 92.3419L133.8 92.086L136.28 91.076L136.753 90.0867L136.753 90.0823L137.771 85.3929L137.778 85.3618L137.778 85.3575L138.015 84.2846L136.616 83.6125L135.4 81.9246L133.2 81.9705L131.193 82.1519L130.606 80.7239L105.182 68.5059L99.9183 65.9736L99.9052 65.9656L99.6545 65.8433L92.7872 62.5436L90.9176 62.6051L88.8587 62.6769Z" fill="#3F3D56"/>
<path d="M144.415 99.3102C146.704 99.3102 148.561 97.3824 148.561 95.0044C148.561 92.6263 146.704 90.6985 144.415 90.6985C142.125 90.6985 140.269 92.6263 140.269 95.0044C140.269 97.3824 142.125 99.3102 144.415 99.3102Z" fill="#1C5739"/>
<path d="M25.5642 238.983C22.5225 239.261 19.4593 238.83 16.5983 237.722C13.7374 236.613 11.1509 234.855 9.02793 232.576C6.25194 229.536 4.34696 225.624 2.50465 221.84C1.96837 220.739 1.41402 219.601 0.850057 218.509C0.221299 217.32 -0.050063 215.962 0.0709287 214.611C0.19192 213.259 0.699721 211.977 1.52892 210.928C2.32354 209.879 3.4023 209.102 4.62619 208.696C5.85009 208.289 7.16304 208.273 8.39587 208.649L8.6647 208.73L11.0842 218.535C11.4451 217.072 12.2199 213.777 12.7091 210.549L12.7502 210.278L12.9912 210.39C15.5175 211.551 17.893 213.037 20.0617 214.815C23.9034 218.015 27.0281 222.046 29.2184 226.627C31.4087 231.208 32.6122 236.23 32.7452 241.343L32.7516 241.648L25.5642 238.983Z" fill="#CCCCCC"/>
<path d="M117.913 241.866L0.501528 242C0.368515 242 0.240946 241.945 0.146892 241.847C0.052838 241.75 0 241.617 0 241.479C0 241.341 0.052838 241.209 0.146892 241.111C0.240946 241.013 0.368515 240.958 0.501528 240.958L117.913 240.824C118.046 240.824 118.173 240.879 118.267 240.977C118.361 241.075 118.413 241.207 118.413 241.345C118.413 241.483 118.361 241.615 118.267 241.712C118.173 241.81 118.046 241.865 117.913 241.866Z" fill="white"/>
<path d="M215.76 29.2306H193.436C192.933 29.2306 192.451 29.0232 192.096 28.654C191.74 28.2848 191.54 27.7841 191.54 27.262C191.54 26.74 191.74 26.2393 192.096 25.8701C192.451 25.5009 192.933 25.2935 193.436 25.2935H215.76C216.263 25.2935 216.745 25.5009 217.1 25.8701C217.456 26.2393 217.655 26.74 217.655 27.262C217.655 27.7841 217.456 28.2848 217.1 28.654C216.745 29.0232 216.263 29.2306 215.76 29.2306Z" fill="white"/>
<path d="M286.074 12.5141C285.156 12.5141 284.259 12.2314 283.495 11.7018C282.732 11.1723 282.138 10.4195 281.786 9.53884C281.435 8.65816 281.343 7.68908 281.522 6.75416C281.701 5.81923 282.143 4.96045 282.792 4.28641C283.441 3.61236 284.268 3.15334 285.168 2.96737C286.069 2.7814 287.002 2.87684 287.85 3.24163C288.698 3.60642 289.422 4.22417 289.932 5.01677C290.442 5.80936 290.714 6.74119 290.714 7.69443C290.714 8.97269 290.226 10.1986 289.355 11.1025C288.485 12.0063 287.305 12.5141 286.074 12.5141Z" fill="white"/>
</g>
<defs>
<clipPath id="clip0_50_187">
<rect width="296" height="242" fill="white"/>
</clipPath>
</defs>
</svg>
