<?xml version="1.0" standalone="no"?>
<!DOCTYPE svg PUBLIC "-//W3C//DTD SVG 20010904//EN"
 "http://www.w3.org/TR/2001/REC-SVG-20010904/DTD/svg10.dtd">
<svg version="1.0" xmlns="http://www.w3.org/2000/svg"
 width="500.000000pt" height="500.000000pt" viewBox="0 0 500.000000 500.000000"
 preserveAspectRatio="xMidYMid meet">

<g transform="translate(0.000000,500.000000) scale(0.100000,-0.100000)"
fill="#1C5739" stroke="none">
<path d="M2210 4514 c-210 -30 -415 -96 -615 -197 -592 -298 -995 -858 -1091
-1517 -25 -176 -15 -521 20 -685 85 -402 299 -788 584 -1056 553 -520 1330
-691 2044 -449 242 82 502 236 699 413 347 312 578 745 645 1207 25 175 15
532 -20 692 -151 700 -628 1249 -1301 1497 -96 36 -272 78 -394 95 -138 20
-437 19 -571 0z m319 -323 c20 -13 -44 -117 -80 -130 -29 -10 -79 -4 -79 11 0
18 30 67 47 77 10 6 13 11 7 11 -16 0 -60 -51 -73 -85 -11 -29 -11 -28 -7 13
5 46 33 87 71 102 27 12 97 12 114 1z m215 -62 c15 -12 25 -24 22 -27 -3 -3
-15 3 -25 12 -24 22 -75 18 -79 -6 -2 -12 9 -25 33 -39 50 -30 61 -53 35 -79
-25 -25 -51 -25 -81 0 l-24 19 31 -11 c35 -13 64 -6 64 15 0 8 -18 26 -40 41
-28 19 -40 33 -40 51 0 45 59 59 104 24z m-525 1 c25 -13 45 -64 37 -95 -9
-34 -45 -65 -77 -65 -33 0 -59 9 -59 20 0 5 14 3 30 -3 55 -21 100 32 79 92
-18 52 -72 68 -109 31 -24 -24 -27 -14 -3 12 18 20 73 24 102 8z m-212 -45
c21 -15 53 -92 53 -129 0 -30 -15 -8 -34 51 -19 59 -35 76 -67 71 -36 -5 -45
-31 -30 -85 24 -87 24 -89 14 -78 -12 11 -43 101 -43 122 0 20 46 63 67 63 10
0 28 -7 40 -15z m930 -77 c-11 -40 -22 -75 -23 -77 -7 -9 -77 12 -95 30 -24
24 -24 44 2 70 17 17 28 19 65 13 39 -6 44 -4 44 13 0 22 9 35 20 28 4 -3 -2
-37 -13 -77z m123 37 c0 -10 -53 -140 -61 -149 -5 -5 -11 -7 -14 -5 -7 8 56
159 66 159 5 0 9 -2 9 -5z m-1221 -86 c18 -39 30 -74 27 -76 -10 -11 -24 9
-47 67 -13 33 -27 60 -32 60 -4 0 -22 -7 -38 -16 -17 -8 -36 -13 -42 -11 -12
4 67 44 89 46 6 1 26 -31 43 -70z m1351 26 c0 -3 -13 -32 -30 -65 -35 -70 -36
-77 -10 -85 11 -3 20 -11 20 -16 0 -5 -27 5 -61 22 -34 16 -59 33 -56 35 3 3
14 1 25 -5 12 -6 22 -11 24 -11 2 0 20 29 39 65 29 55 49 80 49 60z m-1546
-120 l38 -66 25 17 c17 11 24 12 21 3 -5 -16 -108 -74 -108 -61 0 6 9 14 20
17 26 8 26 12 -15 79 -19 32 -35 62 -35 67 0 23 19 3 54 -56z m1671 11 c8 -53
31 -68 58 -35 9 12 20 19 23 16 7 -7 -32 -78 -64 -117 l-20 -25 -39 31 c-50
40 -54 69 -14 92 25 13 31 24 31 50 0 47 18 39 25 -12z m-1782 -91 c50 -69 53
-75 37 -75 -10 0 -100 118 -100 132 0 21 20 2 63 -57z m2005 -75 c-10 -14 -33
-43 -52 -64 l-34 -39 -41 33 c-23 18 -40 35 -37 37 3 3 20 -7 37 -21 l32 -27
21 20 20 21 -29 31 c-29 31 -18 31 18 1 16 -14 20 -14 39 6 l22 22 -32 33
c-47 48 -39 56 11 11 43 -39 43 -39 25 -64z m-2103 3 c41 -21 75 -41 75 -45 0
-14 -19 -9 -80 22 -33 17 -60 29 -60 27 0 -2 9 -30 20 -62 22 -63 25 -85 11
-69 -10 11 -51 132 -51 151 0 18 0 18 85 -24z m2213 -73 c56 -34 64 -89 19
-137 -14 -16 -32 -23 -58 -23 -45 0 -76 24 -84 65 -6 30 -6 30 12 -5 23 -45
62 -59 98 -36 53 35 58 102 9 125 -22 10 -30 9 -45 -5 -18 -16 -18 -18 -3 -36
10 -10 13 -18 7 -18 -5 0 -18 9 -28 20 -18 20 -18 21 5 45 28 30 27 30 68 5z
m-2353 -60 c36 -72 44 -106 23 -97 -7 2 -46 15 -85 28 -41 13 -73 29 -73 36 0
8 9 11 29 7 23 -5 32 -1 49 23 13 19 19 38 15 51 -11 42 7 22 42 -48z m1315
40 c0 -10 -10 -20 -23 -24 -23 -5 -24 -10 -30 -142 -4 -76 -7 -161 -7 -191 0
-50 1 -53 25 -53 18 0 25 -5 25 -20 0 -24 -28 -32 -101 -28 -40 2 -54 7 -54
18 0 8 10 16 23 18 20 3 22 9 22 68 0 71 -5 75 -67 53 l-30 -10 5 -69 c6 -92
-3 -131 -39 -168 -40 -41 -79 -43 -109 -4 -17 20 -21 36 -17 65 6 45 39 112
74 149 20 21 24 32 18 58 l-7 32 -17 -29 c-26 -42 -49 -57 -87 -57 -69 0 -114
78 -114 196 0 114 41 106 57 -11 6 -44 18 -92 27 -106 44 -68 110 13 123 151
7 71 25 98 43 65 6 -12 16 -66 24 -121 7 -55 14 -101 17 -103 2 -2 25 -2 50 1
45 4 47 5 53 40 3 21 6 71 6 113 0 74 -1 77 -26 83 -17 5 -24 12 -22 23 4 22
35 29 103 25 45 -3 55 -7 55 -22z m271 -61 c25 -18 30 -27 27 -57 -4 -41 -28
-57 -28 -18 0 36 -40 62 -72 45 -13 -7 -26 -17 -30 -23 -15 -23 -7 -65 18 -95
30 -36 26 -66 -7 -56 -34 11 -66 -3 -88 -39 -37 -60 -25 -123 29 -151 39 -20
55 -19 106 7 24 12 47 19 50 16 12 -13 -18 -49 -58 -69 -124 -63 -250 62 -194
194 15 37 69 87 93 87 11 0 13 4 6 13 -30 38 -18 114 24 147 33 26 87 26 124
-1z m271 -19 c14 -11 28 -32 31 -47 9 -45 -30 -170 -90 -293 -31 -63 -56 -119
-56 -125 7 -44 54 -180 68 -196 20 -21 74 -26 93 -7 17 17 15 45 -3 52 -39 15
5 113 142 315 34 51 63 95 63 97 0 12 -59 2 -64 -11 -8 -22 -26 -18 -26 5 0
63 138 50 216 -22 83 -77 98 -197 37 -296 l-31 -50 36 -23 c68 -45 49 -65 -28
-30 l-43 19 -46 -36 c-69 -53 -126 -75 -175 -69 -26 4 -50 1 -66 -8 -38 -22
-103 -19 -134 6 -36 28 -53 64 -66 142 -12 65 -12 66 -33 52 -68 -48 -139 25
-91 94 15 20 23 23 65 19 l49 -5 26 55 c31 65 104 284 104 312 0 28 -19 34
-41 14 -17 -15 -22 -16 -29 -5 -11 19 -1 41 24 51 32 13 41 12 68 -10z m-1284
-26 c20 -8 49 -27 64 -41 23 -22 30 -24 43 -13 25 21 42 -3 25 -34 -9 -18 -10
-29 -2 -38 22 -28 43 -127 36 -173 -21 -142 -174 -192 -283 -92 -59 54 -92
193 -57 243 10 13 11 25 5 35 -15 23 -10 55 12 83 37 47 92 58 157 30z m1887
-123 c-14 -36 -23 -66 -21 -69 3 -2 25 10 51 28 26 18 49 29 52 26 7 -7 -119
-86 -129 -80 -4 3 4 35 17 73 14 38 25 73 25 80 0 6 -23 -5 -50 -25 -28 -20
-53 -34 -56 -31 -3 3 25 26 63 51 81 55 88 47 48 -53z m-2604 17 l60 -43 19
25 c35 46 30 14 -6 -39 -33 -49 -58 -66 -35 -23 9 16 2 24 -50 61 -32 23 -59
46 -59 51 0 16 8 12 71 -32z m312 -80 c20 -16 27 -59 10 -65 -7 -3 -13 2 -13
10 0 26 -26 40 -50 27 -77 -41 -78 -191 0 -298 67 -93 166 -96 201 -6 11 32
-3 92 -30 126 l-19 23 -26 -24 c-16 -15 -31 -21 -42 -17 -15 6 -15 8 2 28 27
30 95 78 111 78 18 0 17 -29 -1 -36 -11 -4 -7 -15 18 -49 71 -93 49 -202 -51
-254 -81 -41 -215 47 -262 173 -41 110 -39 173 6 227 51 61 110 83 146 57z
m-377 -44 c55 -30 80 -54 58 -54 -10 0 -134 71 -140 81 -11 18 19 8 82 -27z
m2809 7 c7 -12 -120 -84 -137 -79 -7 3 10 17 37 33 28 15 59 34 70 41 25 16
23 16 30 5z m-2848 -101 c40 -18 63 -34 57 -39 -5 -5 -45 -17 -89 -27 l-80
-17 64 -29 c35 -16 62 -31 59 -34 -9 -9 -149 58 -145 70 3 9 27 17 132 41 29
7 29 7 -30 32 -68 29 -75 33 -51 33 9 0 46 -14 83 -30z m2875 -76 c10 3 27 9
38 12 11 4 20 2 20 -4 0 -5 -8 -12 -17 -15 -10 -3 -44 -17 -76 -31 l-58 -26
-19 42 c-11 24 -19 50 -19 58 0 8 9 -4 19 -27 20 -45 34 -52 64 -30 15 11 16
17 7 35 -6 11 -11 27 -10 34 0 7 8 -2 17 -20 12 -24 21 -32 34 -28z m-2943
-119 c31 -16 41 -33 41 -74 0 -28 -25 -71 -41 -71 -5 0 0 13 12 29 29 40 20
76 -26 98 -26 13 -42 14 -62 7 -33 -11 -53 -56 -37 -82 17 -26 45 -27 51 -3 8
32 24 25 17 -6 -10 -41 -11 -42 -52 -31 l-38 9 6 51 c10 79 62 108 129 73z
m3061 -62 c0 -4 -12 -19 -26 -34 -19 -20 -24 -33 -19 -49 6 -18 12 -21 37 -16
20 4 28 2 26 -6 -4 -10 -148 -51 -155 -44 -2 1 -6 24 -9 49 -5 31 -3 52 6 62
14 17 66 20 75 5 4 -6 15 0 27 15 18 24 38 33 38 18z m-982 -263 c83 -63 101
-70 123 -44 7 9 43 31 79 49 l66 33 78 -59 c49 -36 102 -66 142 -79 63 -21 67
-24 165 -147 56 -68 99 -126 97 -128 -2 -2 -31 14 -65 36 -69 43 -83 47 -83
22 0 -12 -22 4 -65 47 l-65 64 -30 -29 -30 -29 0 46 c0 44 -2 47 -50 78 -27
18 -64 50 -81 71 l-31 39 -51 -80 c-52 -80 -52 -81 -87 -75 -34 6 -37 4 -59
-37 -37 -67 -35 -66 -98 -56 -56 9 -59 8 -161 -42 -58 -28 -106 -49 -108 -47
-13 13 61 80 148 135 84 54 110 65 140 63 28 -1 39 3 48 18 9 17 4 24 -34 50
-25 17 -56 46 -70 63 -17 21 -29 29 -34 22 -4 -6 -27 -41 -51 -78 -42 -64 -46
-67 -80 -64 -32 3 -37 -1 -58 -37 -13 -22 -27 -46 -31 -53 -6 -10 -22 -11 -68
-4 -59 10 -59 10 -166 -44 -59 -30 -110 -54 -114 -54 -3 0 8 18 26 40 17 21
77 69 132 105 84 55 107 66 134 63 31 -4 39 2 95 64 43 49 80 79 127 103 37
19 72 34 79 35 6 0 47 -27 91 -60z m1014 33 c23 -21 23 -75 0 -96 -21 -19
-142 -36 -142 -20 0 6 27 13 60 17 62 7 90 25 90 56 0 35 -39 51 -105 44 -44
-4 -56 -3 -45 5 24 17 121 13 142 -6z m-3124 -19 c33 -9 28 -18 -28 -48 -27
-15 -52 -31 -55 -36 -3 -5 17 -24 44 -42 62 -41 68 -63 14 -54 -21 3 -59 6
-85 6 -27 0 -48 5 -48 10 0 6 29 10 68 10 l67 0 -47 31 c-27 17 -48 35 -48 39
0 5 21 21 48 36 l47 28 -55 8 c-30 5 -59 10 -65 12 -16 7 118 6 143 0z m1282
-92 c0 -4 -5 -13 -11 -19 -6 -6 -13 -36 -15 -66 l-4 -54 50 -7 c67 -9 71 -20
59 -142 -12 -117 -21 -144 -49 -144 -24 0 -27 -31 -6 -50 8 -6 20 -27 26 -46
10 -30 9 -39 -10 -71 l-21 -36 88 6 c56 4 171 26 315 61 321 79 455 100 593
92 130 -7 307 -42 463 -91 130 -41 126 -23 34 -165 -279 -433 -712 -686 -1212
-707 -438 -18 -880 191 -1213 574 -103 119 -249 334 -235 348 3 3 27 1 54 -4
27 -5 123 -13 214 -16 l165 -7 -36 39 c-52 54 -69 94 -70 161 -1 60 22 124 55
151 9 8 26 31 38 52 66 118 240 88 310 -53 36 -71 63 -78 71 -20 6 50 -27 104
-60 96 -36 -9 -28 20 14 55 40 33 58 32 49 -4 -3 -13 0 -27 7 -32 10 -9 185
-33 236 -33 14 0 20 10 25 41 9 58 33 99 56 99 11 0 20 -4 20 -8z m1819 -87
c78 -40 47 -155 -41 -155 -82 0 -116 83 -59 141 33 32 58 36 100 14z m-3157
-97 c43 -13 78 -28 78 -33 0 -6 -36 -30 -80 -54 -59 -31 -80 -38 -80 -27 0 8
9 18 20 21 29 9 24 95 -6 95 -7 0 -16 5 -19 10 -9 14 -1 13 87 -12z m3138
-179 c35 -13 41 -34 6 -25 -13 3 -49 -3 -81 -14 -32 -11 -60 -18 -63 -16 -10
11 11 24 55 36 l47 14 -42 37 c-56 49 -54 61 3 15 24 -20 58 -42 75 -47z
m-3040 15 c0 -3 -12 -21 -26 -39 l-26 -34 39 -17 c21 -9 33 -18 27 -20 -6 -3
-26 2 -45 10 -34 15 -34 15 -66 -22 -38 -46 -55 -36 -19 11 14 19 26 36 26 39
0 3 -19 14 -42 23 -24 10 -38 20 -31 22 6 2 25 -3 42 -11 42 -22 54 -20 79 14
20 27 42 40 42 24z m43 -194 c-8 -8 -131 -50 -145 -50 -4 0 -8 4 -8 9 0 11
141 60 153 54 5 -3 5 -9 0 -13z m2825 -31 c-3 -30 -1 -32 65 -56 37 -14 67
-29 67 -34 0 -13 -12 -11 -84 16 l-66 25 -11 -26 c-5 -15 -12 -24 -15 -21 -6
6 35 127 43 127 2 0 3 -14 1 -31z m-2822 -110 l-36 -54 42 -8 c24 -5 53 -11
66 -13 36 -7 26 -19 -46 -53 -76 -34 -82 -36 -82 -20 0 5 22 19 50 31 27 11
48 24 45 28 -2 4 -25 10 -50 13 -25 2 -48 7 -51 10 -3 3 8 26 25 51 17 24 31
47 31 50 0 3 -25 -6 -56 -20 -85 -37 -78 -19 7 20 41 19 78 31 82 26 5 -4 -7
-32 -27 -61z m2877 -89 c16 0 26 -4 22 -10 -3 -5 -16 -10 -29 -10 -30 0 -61
-62 -45 -91 6 -12 9 -23 6 -25 -5 -5 -117 131 -117 142 0 4 30 4 68 1 37 -4
80 -7 95 -7z m-2750 -88 c-11 -9 -37 -30 -57 -45 -37 -29 -47 -62 -24 -85 19
-19 48 -14 100 19 27 17 51 29 54 26 3 -3 -16 -20 -42 -36 -61 -39 -111 -39
-133 0 -21 38 -7 70 46 107 50 34 96 46 56 14z m129 -148 c3 -3 -3 -33 -13
-67 -10 -33 -17 -62 -15 -64 1 -2 27 1 56 7 65 12 80 13 80 1 0 -15 -120 -114
-128 -106 -4 4 13 25 37 46 24 22 42 42 39 44 -3 3 -27 1 -54 -4 -27 -5 -52
-7 -56 -5 -4 3 0 23 8 46 24 69 18 76 -29 30 -23 -23 -47 -42 -52 -42 -5 0 17
27 50 60 59 60 67 65 77 54z m2447 -66 c41 48 47 39 10 -13 -18 -25 -34 -45
-37 -45 -13 0 -131 103 -126 111 3 5 33 -12 66 -38 l60 -48 27 33z m-156 -80
c74 -30 105 -57 51 -44 -38 10 -86 -36 -77 -73 10 -44 -13 -11 -41 58 -27 66
-32 91 -18 91 4 0 42 -14 85 -32z m-133 -130 c55 -65 54 -96 -1 -33 -44 50
-69 82 -69 89 0 18 24 -1 70 -56z m-1856 -3 c14 -13 26 -34 26 -47 -1 -20 -2
-19 -14 8 -22 50 -72 59 -111 19 -45 -45 -23 -115 37 -115 15 0 28 -4 28 -10
0 -14 -36 -13 -63 2 -56 29 -64 93 -18 139 37 37 78 38 115 4z m1727 -4 l-24
-18 42 -61 c43 -64 47 -72 31 -72 -5 0 -28 27 -50 61 -41 59 -42 60 -66 44
-13 -8 -24 -11 -24 -5 0 12 102 81 109 74 3 -3 -5 -13 -18 -23z m-1594 -81
c58 -35 65 -89 13 -105 -16 -5 -20 -15 -20 -46 0 -24 -4 -38 -10 -34 -5 3 -10
19 -10 36 0 16 -9 38 -21 50 l-22 22 -14 -27 c-12 -23 -33 -36 -33 -21 0 13
71 145 78 145 4 0 21 -9 39 -20z m1493 -70 c18 -38 31 -72 28 -75 -3 -4 -38
10 -77 29 -39 20 -71 32 -71 26 0 -6 11 -33 25 -60 14 -28 22 -50 17 -50 -5 0
-25 33 -45 73 -44 86 -37 92 53 47 34 -17 64 -29 67 -27 2 3 -7 28 -21 56 -15
28 -23 51 -18 51 4 0 23 -31 42 -70z m-1271 -36 c44 -37 44 -91 -1 -129 -88
-74 -190 44 -109 126 36 36 70 37 110 3z m1056 17 c-3 -5 -19 -12 -35 -16 -36
-8 -43 -18 -35 -46 6 -18 12 -20 41 -14 42 7 44 -2 4 -17 -25 -8 -29 -14 -24
-32 10 -34 18 -37 64 -21 52 18 67 11 18 -9 -83 -35 -82 -36 -113 48 -15 42
-26 78 -24 80 9 7 85 35 97 35 7 1 11 -3 7 -8z m-155 -51 c0 -5 -9 -10 -20
-10 -30 0 -33 -19 -16 -91 8 -35 13 -65 11 -67 -11 -12 -24 16 -36 74 -13 64
-14 66 -41 62 -50 -8 -30 9 30 25 72 19 72 19 72 7z m-699 -23 c38 -24 29 -82
-14 -92 -12 -3 -35 -4 -52 -3 -24 3 -31 -1 -33 -19 -2 -13 -9 -23 -17 -23 -11
0 -11 9 0 53 7 28 16 65 19 81 6 26 9 28 43 21 19 -3 44 -11 54 -18z m291 -44
c39 -35 7 -83 -54 -83 -36 0 -38 -2 -38 -30 0 -16 -4 -30 -10 -30 -12 0 -14
153 -2 164 11 12 84 -3 104 -21z m208 17 c23 -12 43 -70 34 -96 -32 -89 -146
-84 -169 7 -7 29 15 83 37 92 22 9 79 7 98 -3z"/>
<path d="M2830 4009 c-14 -26 11 -59 46 -59 18 0 25 8 32 33 10 37 1 47 -40
47 -18 0 -31 -7 -38 -21z"/>
<path d="M3262 3818 c-18 -18 -15 -32 14 -59 l25 -24 19 25 c25 32 25 47 1 60
-26 13 -44 13 -59 -2z"/>
<path d="M1248 3565 c-23 -30 -23 -32 6 -39 13 -3 32 -9 41 -12 15 -6 14 -1
-4 35 -12 22 -22 41 -24 41 -1 0 -10 -11 -19 -25z"/>
<path d="M2300 3201 c-24 -49 -27 -101 -4 -101 29 0 60 119 34 135 -5 3 -18
-12 -30 -34z"/>
<path d="M3419 3273 c-13 -21 -63 -98 -111 -172 -48 -73 -88 -135 -88 -136 0
-12 36 -11 76 1 26 8 73 14 104 14 48 0 60 4 83 28 36 38 57 93 57 151 0 38
-7 59 -32 97 -42 62 -59 65 -89 17z"/>
<path d="M2913 3074 c-9 -25 10 -36 35 -18 12 8 22 19 22 25 0 16 -50 10 -57
-7z"/>
<path d="M3343 2940 c-53 -11 -85 -28 -80 -43 2 -7 12 -13 23 -15 23 -3 106
38 112 56 4 13 5 13 -55 2z"/>
<path d="M1770 3470 c-11 -11 -20 -26 -20 -33 0 -32 99 -48 155 -27 23 9 25
13 14 26 -17 21 -84 54 -109 54 -11 0 -29 -9 -40 -20z"/>
<path d="M1915 3368 c-28 -13 -59 -18 -105 -16 l-65 2 -3 -31 c-10 -103 85
-219 163 -199 14 4 40 19 58 35 30 27 32 34 31 93 0 43 -6 75 -20 99 l-19 36
-40 -19z"/>
<path d="M3912 2878 c-14 -14 -15 -37 -3 -56 5 -9 19 -11 43 -7 30 6 35 10 30
28 -10 45 -44 61 -70 35z"/>
<path d="M1573 2366 c-41 -18 -73 -70 -73 -116 0 -41 29 -94 62 -111 33 -18
99 -15 130 5 29 19 58 72 58 106 0 32 -28 87 -54 104 -35 23 -87 28 -123 12z"/>
<path d="M1825 2135 c-14 -25 -41 -55 -60 -68 l-34 -23 157 -18 c86 -10 171
-20 188 -23 30 -5 31 -3 27 21 -7 35 13 81 43 96 13 8 22 15 20 17 -2 2 -61
10 -132 18 -71 8 -141 17 -156 19 -23 5 -30 -1 -53 -39z"/>
<path d="M2162 2078 c-26 -26 -7 -78 28 -78 19 0 50 30 50 48 0 32 -54 54 -78
30z"/>
<path d="M1471 1949 c-76 -15 -72 -17 69 -39 102 -16 346 -98 450 -150 197
-99 314 -185 505 -371 77 -75 150 -141 162 -148 12 -6 37 -11 55 -11 34 0 138
43 138 57 0 29 -213 251 -325 337 -120 94 -165 122 -293 186 -137 68 -275 114
-404 135 -100 16 -285 18 -357 4z"/>
<path d="M2900 1953 c-144 -14 -380 -72 -380 -92 0 -5 16 -23 35 -40 95 -83
147 -85 337 -13 75 29 183 63 240 77 117 28 328 48 421 38 34 -3 59 -2 54 2
-21 23 -550 44 -707 28z"/>
<path d="M3360 1743 c-150 -14 -275 -55 -448 -146 -31 -17 -32 -18 -17 -46 28
-54 65 -91 93 -91 15 0 63 21 107 46 44 25 159 87 255 137 158 84 171 93 145
98 -32 7 -79 8 -135 2z"/>
<path d="M1456 1728 c5 -14 399 -311 510 -386 37 -24 86 -53 110 -63 46 -21
226 -70 233 -64 10 11 -69 113 -139 178 -193 181 -517 347 -679 347 -28 0 -39
-4 -35 -12z"/>
<path d="M3970 2487 c-13 -7 -29 -25 -34 -40 -20 -57 66 -101 122 -61 64 45
-17 138 -88 101z"/>
<path d="M860 2371 c0 -36 13 -39 53 -12 l29 18 -25 7 c-14 3 -32 9 -41 12
-13 5 -16 -1 -16 -25z"/>
<path d="M3801 1781 c27 -37 34 -38 49 -10 14 25 14 26 -34 34 l-39 8 24 -32z"/>
<path d="M3522 1410 c14 -41 26 -46 50 -22 l21 21 -38 15 c-20 9 -39 16 -41
16 -1 0 2 -14 8 -30z"/>
<path d="M1678 1184 c-11 -23 -10 -28 7 -40 11 -8 29 -13 40 -12 27 4 33 47 9
65 -27 20 -43 16 -56 -13z"/>
<path d="M1851 1094 c-40 -51 -17 -114 42 -114 32 0 67 42 67 80 0 59 -72 81
-109 34z"/>
<path d="M2072 1028 c-10 -38 3 -51 46 -46 53 6 35 78 -20 78 -11 0 -20 -11
-26 -32z"/>
<path d="M2350 980 c0 -37 2 -40 28 -40 16 0 37 9 47 20 17 19 17 21 0 40 -10
11 -31 20 -47 20 -26 0 -28 -3 -28 -40z"/>
<path d="M2562 1014 c-46 -32 -18 -134 38 -134 32 0 60 36 60 75 0 38 -28 75
-58 75 -10 0 -28 -7 -40 -16z"/>
</g>
</svg>
