<svg width="48" height="48" viewBox="0 0 48 48" fill="none" xmlns="http://www.w3.org/2000/svg">
<path d="M25.5 8.99999C18.1313 8.99999 11.8969 13.8281 9.77813 20.4844C12.9281 18.8906 16.4813 18 20.25 18H28.5C29.325 18 30 18.675 30 19.5C30 20.325 29.325 21 28.5 21H27H20.25C18.6938 21 17.1844 21.1781 15.7219 21.5062C13.2937 22.0594 11.0438 23.0437 9.02813 24.3844C3.59063 28.0125 0 34.2094 0 41.25V42.75C0 43.9969 1.00312 45 2.25 45C3.49688 45 4.5 43.9969 4.5 42.75V41.25C4.5 36.6844 6.44063 32.5781 9.54375 29.7C11.4 36.7781 17.8406 42 25.5 42H25.5938C37.9781 41.9344 48 29.7281 48 14.6812C48 10.6875 47.2969 6.89062 46.0219 3.46874C45.7781 2.82187 44.8313 2.84999 44.5031 3.45937C42.7406 6.75937 39.2531 8.99999 35.25 8.99999H25.5Z" fill="black"/>
</svg>
