<svg width="201" height="197" viewBox="0 0 201 197" fill="none" xmlns="http://www.w3.org/2000/svg">
<g clip-path="url(#clip0_11_361)">
<path d="M19.3293 165.955L17.5591 159.133C14.4204 157.833 11.2092 156.707 7.94072 155.761L7.71728 158.932L6.81111 155.438C2.75763 154.306 0 153.808 0 153.808C0 153.808 3.72398 167.649 11.5373 178.231L20.6406 179.793L13.5685 180.79C14.5513 181.945 15.6076 183.039 16.7309 184.065C28.0958 194.374 40.7544 199.103 45.0043 194.629C49.2542 190.154 43.4864 178.171 32.1215 167.864C28.5983 164.668 24.1724 162.104 19.742 160.085L19.3293 165.955Z" fill="#F2F2F2"/>
<path d="M36.1644 158.545L38.258 151.811C36.2589 149.113 34.1056 146.527 31.8085 144.066L29.94 146.667L31.0119 143.219C28.1403 140.203 26.0433 138.384 26.0433 138.384C26.0433 138.384 21.9105 152.114 23.0007 165.119L29.967 171.054L23.3847 168.335C23.615 169.821 23.9407 171.291 24.36 172.737C28.6361 187.302 36.9705 197.745 42.9753 196.061C48.9801 194.378 50.3817 181.206 46.1056 166.641C44.7801 162.126 42.3476 157.695 39.6229 153.729L36.1644 158.545Z" fill="#F2F2F2"/>
<path d="M140.257 46.6694H139.152V17.1093C139.152 14.8625 138.7 12.6376 137.82 10.5618C136.94 8.48605 135.65 6.59994 134.024 5.01119C132.398 3.42245 130.468 2.16219 128.344 1.30237C126.22 0.442543 123.943 0 121.644 0H57.5514C52.9078 0 48.4543 1.80258 45.1708 5.01119C41.8872 8.21981 40.0425 12.5716 40.0425 17.1093V179.281C40.0425 181.528 40.4954 183.753 41.3753 185.829C42.2552 187.905 43.5449 189.791 45.1708 191.379C46.7966 192.968 48.7268 194.228 50.8511 195.088C52.9753 195.948 55.2521 196.391 57.5514 196.391H121.644C126.287 196.391 130.741 194.588 134.024 191.379C137.308 188.171 139.152 183.819 139.152 179.281V67.7109H140.256L140.257 46.6694Z" fill="#E6E6E6"/>
<path d="M122.35 4.44958H113.985C114.369 5.37135 114.516 6.37144 114.412 7.36173C114.308 8.35203 113.957 9.30213 113.388 10.1283C112.82 10.9546 112.052 11.6315 111.153 12.0996C110.254 12.5676 109.251 12.8124 108.232 12.8124H71.5147C70.496 12.8123 69.493 12.5675 68.5939 12.0994C67.6949 11.6313 66.9274 10.9543 66.3592 10.1281C65.791 9.30193 65.4394 8.35186 65.3354 7.3616C65.2315 6.37135 65.3783 5.37131 65.7631 4.44958H57.9492C54.4814 4.44958 51.1556 5.79573 48.7034 8.1919C46.2513 10.5881 44.8737 13.8379 44.8737 17.2266V179.163C44.8737 182.552 46.2513 185.802 48.7034 188.198C51.1556 190.594 54.4814 191.94 57.9492 191.94H122.35C125.818 191.94 129.144 190.594 131.596 188.198C134.048 185.802 135.426 182.552 135.426 179.163V17.2264C135.425 13.8377 134.048 10.5879 131.596 8.1918C129.144 5.7957 125.818 4.44958 122.35 4.44958Z" fill="white"/>
<path d="M81.9433 68.9569C81.943 67.825 82.248 66.7129 82.8273 65.7328C83.4067 64.7526 84.2401 63.9388 85.2436 63.3734C84.2406 62.8074 83.1027 62.5093 81.9445 62.5092C80.7862 62.509 79.6483 62.8069 78.6452 63.3727C77.6421 63.9385 76.8091 64.7524 76.2299 65.7326C75.6507 66.7128 75.3458 67.8247 75.3458 68.9565C75.3458 70.0883 75.6507 71.2002 76.2299 72.1804C76.8091 73.1605 77.6421 73.9744 78.6452 74.5403C79.6483 75.1061 80.7862 75.4039 81.9445 75.4038C83.1027 75.4037 84.2406 75.1056 85.2436 74.5396C84.2401 73.9743 83.4068 73.1606 82.8274 72.1806C82.2481 71.2006 81.9431 70.0887 81.9433 68.9569Z" fill="#CCCCCC"/>
<path d="M90.2378 68.9569C90.2375 67.8249 90.5424 66.7129 91.1218 65.7327C91.7012 64.7526 92.5345 63.9388 93.5381 63.3734C92.5351 62.8074 91.3972 62.5093 90.239 62.5092C89.0807 62.509 87.9428 62.8069 86.9397 63.3727C85.9366 63.9385 85.1036 64.7524 84.5244 65.7326C83.9452 66.7128 83.6403 67.8247 83.6403 68.9565C83.6403 70.0883 83.9452 71.2002 84.5244 72.1804C85.1036 73.1605 85.9366 73.9744 86.9397 74.5403C87.9428 75.1061 89.0807 75.4039 90.239 75.4038C91.3972 75.4037 92.5351 75.1056 93.5381 74.5396C92.5346 73.9743 91.7013 73.1606 91.1219 72.1806C90.5426 71.2006 90.2376 70.0887 90.2378 68.9569Z" fill="#CCCCCC"/>
<path d="M98.3439 75.4039C101.988 75.4039 104.942 72.5174 104.942 68.9566C104.942 65.3958 101.988 62.5093 98.3439 62.5093C94.7 62.5093 91.746 65.3958 91.746 68.9566C91.746 72.5174 94.7 75.4039 98.3439 75.4039Z" fill="#1C5739"/>
<path d="M109.371 89.0942H70.9165C70.5504 89.0937 70.1994 88.9514 69.9406 88.6985C69.6817 88.4455 69.5361 88.1026 69.5356 87.7448V50.1684C69.5361 49.8107 69.6817 49.4677 69.9406 49.2147C70.1994 48.9618 70.5504 48.8195 70.9165 48.8191H109.371C109.737 48.8195 110.088 48.9618 110.347 49.2147C110.605 49.4677 110.751 49.8107 110.751 50.1684V87.7448C110.751 88.1026 110.605 88.4455 110.347 88.6985C110.088 88.9514 109.737 89.0937 109.371 89.0942ZM70.9165 49.3591C70.6968 49.3593 70.4862 49.4447 70.3309 49.5964C70.1756 49.7482 70.0882 49.954 70.088 50.1687V87.7451C70.0882 87.9597 70.1756 88.1655 70.3309 88.3173C70.4862 88.4691 70.6968 88.5544 70.9165 88.5546H109.371C109.59 88.5544 109.801 88.4691 109.956 88.3173C110.112 88.1655 110.199 87.9597 110.199 87.7451V50.1687C110.199 49.954 110.112 49.7482 109.956 49.5964C109.801 49.4447 109.59 49.3593 109.371 49.3591H70.9165Z" fill="#CCCCCC"/>
<path d="M117.957 117.898H58.9798V118.438H117.957V117.898Z" fill="#CCCCCC"/>
<path d="M60.8423 114.528C61.8709 114.528 62.7048 113.713 62.7048 112.708C62.7048 111.703 61.8709 110.888 60.8423 110.888C59.8136 110.888 58.9798 111.703 58.9798 112.708C58.9798 113.713 59.8136 114.528 60.8423 114.528Z" fill="#1C5739"/>
<path d="M117.957 136.097H58.9798V136.637H117.957V136.097Z" fill="#CCCCCC"/>
<path d="M60.8423 132.728C61.8709 132.728 62.7048 131.913 62.7048 130.908C62.7048 129.902 61.8709 129.088 60.8423 129.088C59.8136 129.088 58.9798 129.902 58.9798 130.908C58.9798 131.913 59.8136 132.728 60.8423 132.728Z" fill="#1C5739"/>
<path d="M116.878 156.822H98.2392C97.9172 156.821 97.6086 156.696 97.3809 156.474C97.1533 156.251 97.0252 155.95 97.0249 155.635V149.252C97.0252 148.937 97.1533 148.635 97.3809 148.413C97.6086 148.19 97.9172 148.065 98.2392 148.065H116.878C117.2 148.065 117.508 148.19 117.736 148.413C117.963 148.635 118.092 148.937 118.092 149.252V155.635C118.092 155.95 117.963 156.251 117.736 156.474C117.508 156.696 117.2 156.821 116.878 156.822Z" fill="#1C5739"/>
<path d="M66.9178 114.528C67.9464 114.528 68.7803 113.713 68.7803 112.708C68.7803 111.703 67.9464 110.888 66.9178 110.888C65.8891 110.888 65.0553 111.703 65.0553 112.708C65.0553 113.713 65.8891 114.528 66.9178 114.528Z" fill="#1C5739"/>
<path d="M72.9933 114.528C74.0219 114.528 74.8558 113.713 74.8558 112.708C74.8558 111.703 74.0219 110.888 72.9933 110.888C71.9646 110.888 71.1307 111.703 71.1307 112.708C71.1307 113.713 71.9646 114.528 72.9933 114.528Z" fill="#1C5739"/>
<path d="M66.9178 132.728C67.9464 132.728 68.7803 131.913 68.7803 130.908C68.7803 129.902 67.9464 129.088 66.9178 129.088C65.8891 129.088 65.0553 129.902 65.0553 130.908C65.0553 131.913 65.8891 132.728 66.9178 132.728Z" fill="#1C5739"/>
<path d="M72.9933 132.728C74.0219 132.728 74.8558 131.913 74.8558 130.908C74.8558 129.902 74.0219 129.088 72.9933 129.088C71.9646 129.088 71.1307 129.902 71.1307 130.908C71.1307 131.913 71.9646 132.728 72.9933 132.728Z" fill="#1C5739"/>
<path d="M200.249 197H6.49808C6.08332 197 5.74734 196.856 5.74734 196.679C5.74734 196.502 6.08332 196.357 6.49808 196.357H200.249C200.664 196.357 201 196.501 201 196.679C201 196.856 200.664 197 200.249 197Z" fill="#3F3D56"/>
<path d="M152.38 129.068C152.512 129.127 152.64 129.197 152.761 129.276L164.864 124.228L165.296 121.112L170.133 121.083L169.847 128.229L153.872 132.357C153.838 132.466 153.798 132.572 153.751 132.676C153.52 133.158 153.148 133.562 152.683 133.838C152.218 134.114 151.679 134.249 151.136 134.227C150.592 134.205 150.067 134.027 149.627 133.714C149.186 133.401 148.85 132.969 148.661 132.47C148.471 131.971 148.437 131.429 148.562 130.912C148.687 130.394 148.965 129.924 149.363 129.56C149.76 129.197 150.258 128.956 150.795 128.869C151.332 128.781 151.883 128.851 152.38 129.068Z" fill="#FFB8B8"/>
<path d="M171.891 193.821H168.583L167.009 181.351L171.892 181.352L171.891 193.821Z" fill="#FFB8B8"/>
<path d="M166.22 192.897H172.6V196.823H162.203C162.203 195.782 162.626 194.783 163.379 194.047C164.133 193.311 165.154 192.897 166.22 192.897Z" fill="#2F2E41"/>
<path d="M184.758 192.907L181.466 193.224L178.648 180.966L183.507 180.498L184.758 192.907Z" fill="#FFB8B8"/>
<path d="M179.021 192.531L185.371 191.92L185.765 195.827L175.417 196.823C175.365 196.31 175.418 195.792 175.571 195.299C175.724 194.805 175.975 194.346 176.31 193.948C176.644 193.549 177.056 193.219 177.521 192.976C177.987 192.733 178.496 192.582 179.021 192.531Z" fill="#2F2E41"/>
<path d="M172.812 107.887C176.473 107.887 179.44 104.987 179.44 101.41C179.44 97.833 176.473 94.9333 172.812 94.9333C169.152 94.9333 166.184 97.833 166.184 101.41C166.184 104.987 169.152 107.887 172.812 107.887Z" fill="#FFB8B8"/>
<path d="M167.844 191.299C167.559 191.3 167.284 191.202 167.066 191.024C166.848 190.846 166.701 190.598 166.652 190.324C164.94 181.035 159.343 150.663 159.209 149.822C159.206 149.803 159.204 149.783 159.204 149.763V147.499C159.204 147.416 159.231 147.336 159.28 147.269L160.019 146.257C160.054 146.208 160.1 146.168 160.154 146.139C160.207 146.111 160.267 146.095 160.328 146.092C164.544 145.899 178.35 145.333 179.017 146.147C179.687 146.966 179.45 149.445 179.396 149.934L179.398 149.985L185.601 188.747C185.65 189.056 185.572 189.371 185.384 189.625C185.196 189.878 184.914 190.049 184.599 190.101L180.724 190.724C180.436 190.77 180.14 190.712 179.892 190.563C179.643 190.413 179.457 190.181 179.368 189.909C178.17 186.167 174.152 173.581 172.76 168.711C172.751 168.68 172.731 168.654 172.704 168.636C172.677 168.619 172.644 168.611 172.611 168.616C172.579 168.62 172.549 168.636 172.528 168.661C172.506 168.685 172.495 168.716 172.495 168.748C172.565 173.39 172.733 185.235 172.791 189.326L172.797 189.766C172.8 190.065 172.688 190.353 172.483 190.575C172.279 190.796 171.997 190.935 171.693 190.963L167.957 191.294C167.919 191.298 167.881 191.299 167.844 191.299Z" fill="#2F2E41"/>
<path d="M168.606 110.433C167.449 111.105 166.757 112.34 166.36 113.596C165.625 115.922 165.182 118.327 165.042 120.758L164.622 128.036L159.426 147.331C163.93 151.054 166.527 150.208 172.59 147.162C178.652 144.116 179.345 148.178 179.345 148.178L180.557 131.76L182.289 113.821C181.9 113.363 181.46 112.95 180.977 112.588C179.376 111.372 177.514 110.526 175.53 110.115C173.546 109.704 171.492 109.739 169.524 110.216L168.606 110.433Z" fill="#1C5739"/>
<path d="M166.918 132.965C167.058 133.016 167.193 133.078 167.323 133.151L179.291 127.297L179.489 124.126L184.426 123.794L184.691 131.022L168.697 136.19C168.567 136.738 168.269 137.233 167.843 137.611C167.417 137.989 166.884 138.231 166.314 138.305C165.744 138.38 165.164 138.283 164.652 138.027C164.139 137.772 163.719 137.37 163.446 136.875C163.173 136.381 163.061 135.816 163.124 135.258C163.187 134.699 163.423 134.173 163.8 133.748C164.177 133.324 164.677 133.021 165.234 132.881C165.791 132.742 166.379 132.771 166.918 132.965Z" fill="#FFB8B8"/>
<path d="M182.202 113.903C185.147 114.918 185.666 125.92 185.666 125.92C182.202 124.059 178.045 127.105 178.045 127.105C178.045 127.105 177.179 124.228 176.139 120.504C175.825 119.457 175.788 118.349 176.03 117.284C176.272 116.218 176.787 115.23 177.525 114.411C177.525 114.411 179.258 112.887 182.202 113.903Z" fill="#1C5739"/>
<path d="M178.755 103.123C177.929 102.477 176.803 103.651 176.803 103.651L176.142 97.8404C176.142 97.8404 172.013 98.3238 169.371 97.6792C166.728 97.0345 166.315 100.019 166.315 100.019C166.179 98.8137 166.151 97.5986 166.233 96.3882C166.398 94.9356 168.545 93.4831 172.343 92.5147C176.142 91.5462 178.124 95.7425 178.124 95.7425C180.767 97.0335 179.581 103.768 178.755 103.123Z" fill="#2F2E41"/>
</g>
<defs>
<clipPath id="clip0_11_361">
<rect width="201" height="197" fill="white"/>
</clipPath>
</defs>
</svg>
