<svg width="48" height="48" viewBox="0 0 48 48" fill="none" xmlns="http://www.w3.org/2000/svg">
<g clip-path="url(#clip0_18_495)">
<path d="M39 19.5C39 23.8031 37.6031 27.7781 35.25 31.0031L47.1188 42.8812C48.2906 44.0531 48.2906 45.9563 47.1188 47.1281C45.9469 48.3 44.0437 48.3 42.8719 47.1281L31.0031 35.25C27.7781 37.6125 23.8031 39 19.5 39C8.72812 39 0 30.2719 0 19.5C0 8.72812 8.72812 0 19.5 0C30.2719 0 39 8.72812 39 19.5ZM19.5 33C21.2728 33 23.0283 32.6508 24.6662 31.9724C26.3041 31.2939 27.7923 30.2995 29.0459 29.0459C30.2995 27.7923 31.2939 26.3041 31.9724 24.6662C32.6508 23.0283 33 21.2728 33 19.5C33 17.7272 32.6508 15.9717 31.9724 14.3338C31.2939 12.6959 30.2995 11.2076 29.0459 9.95406C27.7923 8.70047 26.3041 7.70607 24.6662 7.02763C23.0283 6.34919 21.2728 6 19.5 6C17.7272 6 15.9717 6.34919 14.3338 7.02763C12.6959 7.70607 11.2076 8.70047 9.95406 9.95406C8.70047 11.2076 7.70606 12.6959 7.02763 14.3338C6.34919 15.9717 6 17.7272 6 19.5C6 21.2728 6.34919 23.0283 7.02763 24.6662C7.70606 26.3041 8.70047 27.7923 9.95406 29.0459C11.2076 30.2995 12.6959 31.2939 14.3338 31.9724C15.9717 32.6508 17.7272 33 19.5 33Z" fill="black"/>
</g>
<defs>
<clipPath id="clip0_18_495">
<rect width="48" height="48" fill="white"/>
</clipPath>
</defs>
</svg>
