<svg width="253" height="246" viewBox="0 0 253 246" fill="none" xmlns="http://www.w3.org/2000/svg">
<g clip-path="url(#clip0_50_304)">
<path d="M217.427 203.262C213.159 216.943 207.669 230.595 200.636 243.589C200.479 243.881 200.322 244.168 200.162 244.46L182.751 238.432C182.851 238.157 182.961 237.848 183.078 237.511C190.101 217.638 232.472 96.5548 230.57 72.6815C230.775 74.6357 237.403 139.306 217.427 203.262Z" fill="#E6E6E6"/>
<path d="M203.995 244.752C203.758 245.016 203.515 245.279 203.271 245.536L190.209 241.014C190.385 240.78 190.591 240.505 190.827 240.194C194.696 235.024 206.197 219.547 217.427 203.262C229.496 185.761 241.255 167.331 242.903 159.758C242.572 161.48 232.265 213.903 203.995 244.752Z" fill="#E6E6E6"/>
<path d="M210.524 43.1431C210.519 43.1431 210.514 43.1446 210.509 43.1448V12.5069C210.509 9.18984 209.305 6.00867 207.162 3.66318C205.018 1.31768 202.111 0 199.079 0H111.42C108.388 0 105.481 1.31768 103.338 3.66318C101.194 6.00867 99.9899 9.18984 99.9899 12.5069V28.2135C99.7479 28.2191 99.5176 28.3282 99.3482 28.5174C99.1788 28.7066 99.0838 28.9609 99.0836 29.2258V37.0054C99.0838 37.2703 99.1788 37.5245 99.3482 37.7137C99.5176 37.9029 99.7479 38.0119 99.9899 38.0175V46.1674H99.9435C99.8217 46.1674 99.7012 46.1937 99.5887 46.2446C99.4762 46.2956 99.374 46.3704 99.2879 46.4646C99.2018 46.5588 99.1335 46.6706 99.0869 46.7937C99.0403 46.9168 99.0164 47.0487 99.0164 47.1819V62.2258C99.0164 62.3591 99.0403 62.491 99.0869 62.6141C99.1335 62.7372 99.2018 62.849 99.2879 62.9432C99.374 63.0374 99.4762 63.1121 99.5887 63.1631C99.7012 63.2141 99.8217 63.2403 99.9435 63.2403H99.9899V69.2153H99.9755C99.8537 69.2153 99.7332 69.2415 99.6207 69.2925C99.5082 69.3435 99.406 69.4182 99.3199 69.5124C99.2338 69.6066 99.1655 69.7185 99.1189 69.8416C99.0723 69.9646 99.0484 70.0966 99.0484 70.2298V85.4209C99.0484 85.5541 99.0723 85.686 99.1189 85.8091C99.1655 85.9322 99.2338 86.044 99.3199 86.1382C99.406 86.2324 99.5082 86.3072 99.6207 86.3581C99.7332 86.4091 99.8537 86.4354 99.9755 86.4354H99.9899V233.275C99.9899 236.592 101.194 239.773 103.338 242.119C105.481 244.464 108.388 245.782 111.42 245.782H199.079C202.111 245.782 205.018 244.464 207.162 242.119C209.305 239.773 210.509 236.592 210.509 233.275V72.9352C210.514 72.9352 210.519 72.9368 210.524 72.9368C210.741 72.9368 210.955 72.8901 211.155 72.7993C211.356 72.7085 211.538 72.5755 211.691 72.4077C211.844 72.24 211.966 72.0408 212.049 71.8217C212.132 71.6025 212.175 71.3676 212.175 71.1304V44.9496C212.175 44.4705 212.001 44.011 211.691 43.6722C211.382 43.3334 210.962 43.1431 210.524 43.1431Z" fill="#3F3D56"/>
<path d="M203.685 16.0077V229.771C203.684 232.318 202.759 234.76 201.112 236.561C199.466 238.361 197.234 239.373 194.906 239.373H115.593C113.265 239.373 111.033 238.361 109.387 236.561C107.741 234.76 106.815 232.318 106.814 229.771V16.0077C106.814 13.4602 107.739 11.0171 109.386 9.21574C111.032 7.41439 113.264 6.4024 115.593 6.4024H127.461V8.08798C127.462 10.1854 128.224 12.1966 129.579 13.6796C130.935 15.1627 132.773 15.9963 134.689 15.9972H175.041C176.955 15.9926 178.79 15.1572 180.142 13.6745C181.494 12.1917 182.253 10.1826 182.253 8.08798V6.41992H194.906C197.232 6.41992 199.462 7.4295 201.108 9.22706C202.754 11.0246 203.68 13.4633 203.685 16.0077Z" fill="white"/>
<path d="M75.0708 119.946C74.6018 119.748 74.0986 119.664 73.5968 119.701C73.095 119.738 72.6067 119.895 72.1663 120.161C71.726 120.427 71.3443 120.795 71.048 121.24C70.7518 121.685 70.5484 122.195 70.4519 122.735L42.1882 139.552L47.1576 145.672L73.4056 127.239C74.2456 127.356 75.0957 127.132 75.7947 126.609C76.4938 126.086 76.9933 125.301 77.1986 124.402C77.4038 123.503 77.3006 122.553 76.9084 121.732C76.5163 120.911 75.8624 120.275 75.0708 119.946Z" fill="#FFB8B8"/>
<path d="M67.8627 240.939L71.3845 238.447L64.274 222.396L59.0759 226.075L67.8627 240.939Z" fill="#FFB8B8"/>
<path d="M80.292 237.218L69.2232 245.052L66.457 240.373L73.4091 235.452C74.5009 234.679 75.8285 234.413 77.0999 234.711C78.3713 235.009 79.4823 235.848 80.1886 237.043L80.292 237.218Z" fill="#2F2E41"/>
<path d="M28.3459 241.519H32.5403L34.5364 223.816H28.3459V241.519Z" fill="#FFB8B8"/>
<path d="M40.6296 245.781H27.4471V240.208H35.7268C36.3707 240.208 37.0082 240.347 37.6031 240.616C38.1979 240.886 38.7384 241.281 39.1936 241.779C39.6489 242.277 40.01 242.869 40.2564 243.52C40.5028 244.17 40.6296 244.868 40.6296 245.573V245.781Z" fill="#2F2E41"/>
<path d="M124.579 34.69H115.932C115.719 34.69 115.516 34.5977 115.366 34.4334C115.215 34.2691 115.131 34.0462 115.131 33.8139C115.131 33.5815 115.215 33.3587 115.366 33.1944C115.516 33.0301 115.719 32.9378 115.932 32.9378H124.579C124.791 32.9378 124.995 33.0301 125.145 33.1944C125.295 33.3587 125.379 33.5815 125.379 33.8139C125.379 34.0462 125.295 34.2691 125.145 34.4334C124.995 34.5977 124.791 34.69 124.579 34.69Z" fill="#3F3D56"/>
<path d="M124.579 37.143H115.932C115.719 37.143 115.516 37.0507 115.366 36.8864C115.215 36.7221 115.131 36.4992 115.131 36.2669C115.131 36.0345 115.215 35.8117 115.366 35.6474C115.516 35.4831 115.719 35.3908 115.932 35.3908H124.579C124.791 35.3908 124.995 35.4831 125.145 35.6474C125.295 35.8117 125.379 36.0345 125.379 36.2669C125.379 36.4992 125.295 36.7221 125.145 36.8864C124.995 37.0507 124.791 37.143 124.579 37.143Z" fill="#3F3D56"/>
<path d="M124.579 39.596H115.932C115.719 39.596 115.516 39.5037 115.366 39.3394C115.215 39.1751 115.131 38.9522 115.131 38.7199C115.131 38.4875 115.215 38.2647 115.366 38.1004C115.516 37.9361 115.719 37.8438 115.932 37.8438H124.579C124.791 37.8438 124.995 37.9361 125.145 38.1004C125.295 38.2647 125.379 38.4875 125.379 38.7199C125.379 38.9522 125.295 39.1751 125.145 39.3394C124.995 39.5037 124.791 39.596 124.579 39.596Z" fill="#3F3D56"/>
<path d="M191.605 37.1605H191.313L191.201 37.0588C191.569 36.5787 191.771 35.972 191.771 35.3452C191.769 34.8296 191.626 34.3263 191.363 33.8991C191.099 33.4719 190.725 33.14 190.288 32.9452C189.852 32.7504 189.373 32.7016 188.911 32.8049C188.449 32.9083 188.026 33.1591 187.695 33.5256C187.363 33.8922 187.139 34.3581 187.049 34.8644C186.96 35.3707 187.009 35.8946 187.192 36.3699C187.375 36.8453 187.682 37.2507 188.075 37.5348C188.469 37.819 188.93 37.9692 189.401 37.9665C189.972 37.962 190.525 37.7417 190.964 37.3427L191.073 37.4443V37.7667L192.911 39.7817L193.462 39.1789L191.605 37.1605ZM189.401 37.1605C189.073 37.1619 188.752 37.0567 188.479 36.8584C188.205 36.6601 187.991 36.3775 187.865 36.0464C187.738 35.7152 187.704 35.3504 187.767 34.998C187.829 34.6456 187.986 34.3215 188.217 34.0667C188.448 33.8118 188.743 33.6377 189.065 33.5663C189.387 33.4949 189.72 33.5294 190.024 33.6655C190.327 33.8016 190.587 34.0332 190.771 34.3309C190.954 34.6287 191.053 34.9792 191.054 35.3382L191.054 35.3452C191.055 35.5822 191.014 35.8172 190.932 36.0367C190.85 36.2561 190.73 36.4559 190.578 36.6244C190.425 36.793 190.244 36.9271 190.045 37.019C189.845 37.111 189.631 37.1591 189.414 37.1604C189.41 37.1605 189.406 37.1605 189.401 37.1605Z" fill="#3F3D56"/>
<path d="M142.194 66.9296H126.66C125.726 66.9296 124.83 66.5235 124.169 65.8006C123.509 65.0777 123.137 64.0972 123.137 63.0749C123.137 62.0526 123.509 61.0721 124.169 60.3492C124.83 59.6263 125.726 59.2202 126.66 59.2202H142.194C143.129 59.2202 144.025 59.6263 144.685 60.3492C145.346 61.0721 145.717 62.0526 145.717 63.0749C145.717 64.0972 145.346 65.0777 144.685 65.8006C144.025 66.5235 143.129 66.9296 142.194 66.9296Z" fill="#1C5739"/>
<path d="M189.75 75.34H125.059C124.549 75.34 124.061 75.1185 123.7 74.7242C123.34 74.3299 123.137 73.7951 123.137 73.2374C123.137 72.6798 123.34 72.145 123.7 71.7507C124.061 71.3563 124.549 71.1348 125.059 71.1348H189.75C190.26 71.1348 190.748 71.3563 191.109 71.7507C191.469 72.145 191.672 72.6798 191.672 73.2374C191.672 73.7951 191.469 74.3299 191.109 74.7242C190.748 75.1185 190.26 75.34 189.75 75.34Z" fill="#E6E6E6"/>
<path d="M148.822 83.7503H125.059C124.549 83.7503 124.061 83.5288 123.7 83.1345C123.34 82.7402 123.137 82.2054 123.137 81.6478C123.137 81.0901 123.34 80.5553 123.7 80.161C124.061 79.7667 124.549 79.5452 125.059 79.5452H148.822C149.331 79.5452 149.82 79.7667 150.181 80.161C150.541 80.5553 150.743 81.0901 150.743 81.6478C150.743 82.2054 150.541 82.7402 150.181 83.1345C149.82 83.5288 149.331 83.7503 148.822 83.7503Z" fill="#E6E6E6"/>
<path d="M142.194 160.144H126.66C125.726 160.144 124.83 159.738 124.169 159.015C123.509 158.292 123.137 157.312 123.137 156.29C123.137 155.267 123.509 154.287 124.169 153.564C124.83 152.841 125.726 152.435 126.66 152.435H142.194C143.129 152.435 144.025 152.841 144.685 153.564C145.346 154.287 145.717 155.267 145.717 156.29C145.717 157.312 145.346 158.292 144.685 159.015C144.025 159.738 143.129 160.144 142.194 160.144Z" fill="#1C5739"/>
<path d="M189.75 168.555H125.059C124.549 168.555 124.061 168.333 123.7 167.939C123.34 167.545 123.137 167.01 123.137 166.452C123.137 165.894 123.34 165.36 123.7 164.965C124.061 164.571 124.549 164.349 125.059 164.349H189.75C190.26 164.349 190.748 164.571 191.109 164.965C191.469 165.36 191.672 165.894 191.672 166.452C191.672 167.01 191.469 167.545 191.109 167.939C190.748 168.333 190.26 168.555 189.75 168.555Z" fill="#E6E6E6"/>
<path d="M148.822 176.965H125.059C124.549 176.965 124.061 176.744 123.7 176.349C123.34 175.955 123.137 175.42 123.137 174.862C123.137 174.305 123.34 173.77 123.7 173.376C124.061 172.981 124.549 172.76 125.059 172.76H148.822C149.331 172.76 149.82 172.981 150.181 173.376C150.541 173.77 150.743 174.305 150.743 174.862C150.743 175.42 150.541 175.955 150.181 176.349C149.82 176.744 149.331 176.965 148.822 176.965Z" fill="#E6E6E6"/>
<path d="M142.194 203.247H126.66C125.726 203.247 124.83 202.841 124.169 202.118C123.509 201.395 123.137 200.415 123.137 199.393C123.137 198.37 123.509 197.39 124.169 196.667C124.83 195.944 125.726 195.538 126.66 195.538H142.194C143.129 195.538 144.025 195.944 144.685 196.667C145.346 197.39 145.717 198.37 145.717 199.393C145.717 200.415 145.346 201.395 144.685 202.118C144.025 202.841 143.129 203.247 142.194 203.247Z" fill="#1C5739"/>
<path d="M189.75 211.658H125.059C124.549 211.658 124.061 211.436 123.7 211.042C123.34 210.648 123.137 210.113 123.137 209.555C123.137 208.998 123.34 208.463 123.7 208.068C124.061 207.674 124.549 207.453 125.059 207.453H189.75C190.26 207.453 190.748 207.674 191.109 208.068C191.469 208.463 191.672 208.998 191.672 209.555C191.672 210.113 191.469 210.648 191.109 211.042C190.748 211.436 190.26 211.658 189.75 211.658Z" fill="#E6E6E6"/>
<path d="M148.822 220.068H125.059C124.549 220.068 124.061 219.847 123.7 219.452C123.34 219.058 123.137 218.523 123.137 217.966C123.137 217.408 123.34 216.873 123.7 216.479C124.061 216.084 124.549 215.863 125.059 215.863H148.822C149.331 215.863 149.82 216.084 150.181 216.479C150.541 216.873 150.743 217.408 150.743 217.966C150.743 218.523 150.541 219.058 150.181 219.452C149.82 219.847 149.331 220.068 148.822 220.068Z" fill="#E6E6E6"/>
<path d="M198.877 138.242H75.2595C74.5378 138.241 73.8459 137.927 73.3356 137.369C72.8253 136.811 72.5382 136.053 72.5374 135.264V98.4684C72.5382 97.6787 72.8252 96.9216 73.3355 96.3632C73.8459 95.8047 74.5378 95.4906 75.2595 95.4897H198.877C199.599 95.4907 200.291 95.8048 200.801 96.3632C201.311 96.9216 201.599 97.6787 201.599 98.4684V135.264C201.599 136.053 201.311 136.81 200.801 137.369C200.291 137.927 199.599 138.241 198.877 138.242Z" fill="#1C5739"/>
<path d="M30.8184 182.018C32.0001 191.091 25.7424 231.285 26.4374 231.282L35.4237 231.229C35.7439 230.556 39.8688 208.868 41.1626 205.388C42.9688 200.56 44.7911 195.671 45.502 190.513C46.1714 185.67 45.8415 180.736 45.4059 175.861C45.4262 175.716 45.4146 175.568 45.3722 175.429C45.3298 175.29 45.2578 175.164 45.1621 175.061C45.0663 174.958 44.9497 174.882 44.8217 174.838C44.6937 174.795 44.5581 174.785 44.426 174.81L32.3684 174.13C29.8833 173.99 29.294 173.394 29.6719 176.064C29.9345 178.058 30.5558 180 30.8184 182.018Z" fill="#2F2E41"/>
<path d="M33.1882 159.959C30.7383 163.813 28.1699 168.25 28.9833 172.865C29.6014 176.369 32.0417 179.085 34.3444 181.626C43.5484 191.739 61.6972 236.363 61.6972 236.363C70.4556 230.231 61.4885 236.538 70.376 230.055C69.5882 229.989 51.6893 159.584 50.2065 159.489C44.2082 159.054 39.0329 158.413 33.1882 159.959Z" fill="#2F2E41"/>
<path d="M42.8787 123.269C41.6343 122.054 32.8892 118.31 32.8892 118.31C32.7285 118.286 32.5653 118.292 32.4061 118.326C31.9084 118.463 31.6813 119.14 31.7876 119.687C31.8939 120.234 31.0218 129.227 30.7971 133.317C30.4034 140.454 34.2445 156.622 34.2107 157.116C34.0791 158.879 33.3736 160.532 32.2225 161.774C32.5216 162.18 51.5225 162.995 52.815 163.476C53.0759 163.114 51.3438 137.47 51.264 136.021C51.1312 133.822 44.5214 124.934 42.8787 123.269Z" fill="#E6E6E6"/>
<path d="M29.3265 178.913C29.7768 178.668 30.1724 178.318 30.4856 177.887C30.7988 177.456 31.022 176.956 31.1392 176.421C31.2565 175.885 31.2652 175.329 31.1645 174.789C31.0639 174.25 30.8564 173.742 30.5568 173.3L38.5736 124.751L31.0925 124.643L25.5252 172.651C24.88 173.251 24.4584 174.09 24.3402 175.007C24.2221 175.925 24.4156 176.858 24.8842 177.63C25.3527 178.401 26.0637 178.958 26.8825 179.195C27.7012 179.431 28.5708 179.331 29.3265 178.913Z" fill="#FFB8B8"/>
<path d="M29.2621 128.353C28.9502 128.378 28.6394 128.289 28.3783 128.101C27.9331 127.684 31.5648 121.303 32.2821 121.208C34.6168 120.914 37.0187 120.815 39.2829 121.506C41.5471 122.196 43.6767 123.766 44.6887 126.089C45.1115 127.057 42.0467 131.924 40.6536 131.209C38.985 130.354 31.4591 128.413 29.2621 128.353Z" fill="#E6E6E6"/>
<path d="M37.5022 117.787C42.1431 117.787 45.9052 113.67 45.9052 108.592C45.9052 103.513 42.1431 99.3968 37.5022 99.3968C32.8613 99.3968 29.0991 103.513 29.0991 108.592C29.0991 113.67 32.8613 117.787 37.5022 117.787Z" fill="#FFB8B8"/>
<path d="M29.2487 123.795C30.4164 123.928 31.5961 123.739 32.6799 123.245C33.7637 122.751 34.7169 121.968 35.4524 120.966C36.1879 119.965 36.6822 118.778 36.89 117.513C37.0978 116.249 37.0125 114.947 36.6419 113.728C36.3075 112.628 35.7485 111.62 35.4423 110.51C35.1361 109.4 35.1277 108.088 35.8069 107.198C37.1359 105.457 39.6974 106.552 41.7461 106.206C43.9292 105.837 45.604 103.545 45.7787 101.136C45.9534 98.7263 44.8056 96.3419 43.0971 94.8099C41.3885 93.278 39.1849 92.5236 36.9866 92.2873C34.1634 91.9837 31.3163 92.4807 28.7195 93.7302C26.1227 94.9798 23.8636 96.9399 22.1598 99.4218C20.456 101.904 19.3649 104.824 18.9914 107.901C18.618 110.978 18.9749 114.109 20.0277 116.991C20.9462 119.506 22.4464 121.848 24.5772 123.225C26.708 124.602 29.5223 124.866 31.6461 123.476" fill="#2F2E41"/>
<path d="M119.223 112.311H97.7487C96.3849 112.311 95.2754 110.581 95.2754 108.456C95.2754 106.33 96.3849 104.601 97.7487 104.601H119.223C120.587 104.601 121.696 106.33 121.696 108.456C121.696 110.581 120.587 112.311 119.223 112.311Z" fill="white"/>
<path d="M176.94 120.721H97.1969C96.6873 120.721 96.1985 120.499 95.8382 120.105C95.4778 119.711 95.2754 119.176 95.2754 118.618C95.2754 118.061 95.4778 117.526 95.8382 117.131C96.1985 116.737 96.6873 116.516 97.1969 116.516H176.94C177.45 116.516 177.938 116.737 178.299 117.131C178.659 117.526 178.861 118.061 178.861 118.618C178.861 119.176 178.659 119.711 178.299 120.105C177.938 120.499 177.45 120.721 176.94 120.721Z" fill="#E6E6E6"/>
<path d="M136.012 129.131H97.1969C96.6873 129.131 96.1985 128.91 95.8382 128.515C95.4778 128.121 95.2754 127.586 95.2754 127.029C95.2754 126.471 95.4778 125.936 95.8382 125.542C96.1985 125.148 96.6873 124.926 97.1969 124.926H136.012C136.521 124.926 137.01 125.148 137.37 125.542C137.731 125.936 137.933 126.471 137.933 127.029C137.933 127.586 137.731 128.121 137.37 128.515C137.01 128.91 136.521 129.131 136.012 129.131Z" fill="#E6E6E6"/>
<path d="M253 245.299H0V246H253V245.299Z" fill="#3F3D56"/>
</g>
<defs>
<clipPath id="clip0_50_304">
<rect width="253" height="246" fill="white"/>
</clipPath>
</defs>
</svg>
