<svg width="36" height="48" viewBox="0 0 36 48" fill="none" xmlns="http://www.w3.org/2000/svg">
<g clip-path="url(#clip0_18_497)">
<path d="M6 0C2.69063 0 0 2.69063 0 6V42C0 45.3094 2.69063 48 6 48H30C33.3094 48 36 45.3094 36 42V15H24C22.3406 15 21 13.6594 21 12V0H6ZM24 0V12H36L24 0ZM10.5 24H25.5C26.325 24 27 24.675 27 25.5C27 26.325 26.325 27 25.5 27H10.5C9.675 27 9 26.325 9 25.5C9 24.675 9.675 24 10.5 24ZM10.5 30H25.5C26.325 30 27 30.675 27 31.5C27 32.325 26.325 33 25.5 33H10.5C9.675 33 9 32.325 9 31.5C9 30.675 9.675 30 10.5 30ZM10.5 36H25.5C26.325 36 27 36.675 27 37.5C27 38.325 26.325 39 25.5 39H10.5C9.675 39 9 38.325 9 37.5C9 36.675 9.675 36 10.5 36Z" fill="black"/>
</g>
<defs>
<clipPath id="clip0_18_497">
<rect width="36" height="48" fill="white"/>
</clipPath>
</defs>
</svg>
