<svg width="266" height="227" viewBox="0 0 266 227" fill="none" xmlns="http://www.w3.org/2000/svg">
<g clip-path="url(#clip0_11_111)">
<path d="M90.5408 159.461C102.031 159.461 111.345 148.79 111.345 135.626C111.345 122.462 102.031 111.79 90.5408 111.79C79.051 111.79 69.7366 122.462 69.7366 135.626C69.7366 148.79 79.051 159.461 90.5408 159.461Z" fill="white"/>
<path opacity="0.2" d="M75.1797 119.706C73.2391 124.906 72.9759 130.728 74.437 136.131C75.8981 141.533 78.9883 146.165 83.1555 149.197C87.3227 152.23 92.2953 153.466 97.1847 152.684C102.074 151.903 106.562 149.155 109.846 144.932C108.66 148.11 106.886 150.954 104.646 153.268C102.406 155.581 99.7534 157.31 96.8725 158.332C93.9915 159.355 90.951 159.648 87.9614 159.191C84.9719 158.734 82.1048 157.537 79.5589 155.685C77.0129 153.832 74.849 151.367 73.217 148.461C71.5851 145.555 70.524 142.278 70.1075 138.855C69.6909 135.433 69.9288 131.948 70.8046 128.641C71.6804 125.335 73.1733 122.286 75.1797 119.706Z" fill="black"/>
<path d="M90.5981 135.626H90.6552L91.6841 203.203H89.5121L90.5981 135.626Z" fill="white"/>
<path d="M126.788 125.818C140.627 125.818 151.846 112.965 151.846 97.109C151.846 81.2533 140.627 68.3997 126.788 68.3997C112.948 68.3997 101.729 81.2533 101.729 97.109C101.729 112.965 112.948 125.818 126.788 125.818Z" fill="white"/>
<path opacity="0.2" d="M145.29 77.9334C147.627 84.1976 147.944 91.2099 146.184 97.7172C144.425 104.225 140.702 109.803 135.683 113.456C130.664 117.108 124.674 118.597 118.785 117.656C112.896 116.715 107.491 113.405 103.535 108.318C104.963 112.146 107.1 115.571 109.798 118.358C112.496 121.145 115.691 123.227 119.161 124.459C122.631 125.691 126.294 126.044 129.894 125.493C133.495 124.942 136.949 123.501 140.015 121.27C143.082 119.038 145.688 116.07 147.654 112.569C149.62 109.069 150.898 105.121 151.399 100.999C151.901 96.8768 151.614 92.6789 150.56 88.6961C149.505 84.7133 147.707 81.041 145.29 77.9334Z" fill="black"/>
<path d="M126.719 97.109H126.65L125.411 178.505H128.027L126.719 97.109Z" fill="white"/>
<path d="M80.2695 70.2169L83.6718 67.0992C81.0287 66.7651 79.9427 68.4166 79.4982 69.7238C77.4333 68.7414 75.1854 70.0289 75.1854 70.0289L81.9929 72.8603C81.6494 71.8093 81.0516 70.8924 80.2695 70.2169Z" fill="white"/>
<path d="M71.6931 43.3141L75.0954 40.1964C72.4523 39.8623 71.3663 41.5138 70.9218 42.821C68.8569 41.8386 66.609 43.1261 66.609 43.1261L73.4164 45.9575C73.073 44.9065 72.4752 43.9896 71.6931 43.3141Z" fill="white"/>
<path d="M119.891 60.7077L123.293 57.59C120.65 57.256 119.564 58.9075 119.12 60.2147C117.055 59.2323 114.807 60.5197 114.807 60.5197L121.614 63.3511C121.271 62.3002 120.673 61.3833 119.891 60.7077Z" fill="white"/>
<path d="M116.529 178.38C116.529 178.38 116.659 175.255 119.328 175.618L116.529 178.38Z" fill="white"/>
<path d="M134.658 178.38C134.658 178.38 134.788 175.255 137.457 175.618L134.658 178.38Z" fill="white"/>
<path d="M129.379 178.38C129.379 178.38 129.51 175.255 132.178 175.618L129.379 178.38Z" fill="white"/>
<path d="M111.673 178.38C111.673 178.38 111.543 175.255 108.874 175.618L111.673 178.38Z" fill="white"/>
<path d="M122.984 178.596C122.984 178.596 122.854 175.471 120.185 175.834L122.984 178.596Z" fill="white"/>
<path d="M81.4661 202.929C81.4661 202.929 81.5963 199.804 84.2651 200.167L81.4661 202.929Z" fill="white"/>
<path d="M99.5951 202.929C99.5951 202.929 99.7253 199.804 102.394 200.167L99.5951 202.929Z" fill="white"/>
<path d="M94.3165 202.929C94.3165 202.929 94.4467 199.804 97.1155 200.167L94.3165 202.929Z" fill="white"/>
<path d="M76.6099 202.929C76.6099 202.929 76.4797 199.804 73.8109 200.167L76.6099 202.929Z" fill="white"/>
<path d="M87.9211 203.145C87.9211 203.145 87.791 200.02 85.1222 200.383L87.9211 203.145Z" fill="white"/>
<path d="M219.026 56.428H184.139V59.9896H219.026V56.428Z" fill="#3F3D56"/>
<path d="M219.026 69.5483H184.139V73.1099H219.026V69.5483Z" fill="#3F3D56"/>
<path d="M219.026 81.302H184.139V84.8636H219.026V81.302Z" fill="#3F3D56"/>
<path d="M171.017 58.2088C171.017 57.2897 171.255 56.3913 171.701 55.6272C172.147 54.863 172.78 54.2674 173.521 53.9157C174.262 53.564 175.078 53.472 175.865 53.6513C176.651 53.8306 177.374 54.2731 177.941 54.923C178.509 55.5729 178.895 56.4009 179.051 57.3022C179.208 58.2036 179.127 59.138 178.82 59.987C178.513 60.8361 177.994 61.5619 177.327 62.0725C176.66 62.5831 175.876 62.8556 175.073 62.8556C173.998 62.8542 172.967 62.3642 172.207 61.4931C171.446 60.6219 171.019 59.4408 171.017 58.2088Z" fill="#1C5739"/>
<path d="M171.017 71.3292C171.017 70.4101 171.255 69.5117 171.701 68.7475C172.147 67.9834 172.78 67.3878 173.521 67.0361C174.262 66.6844 175.078 66.5923 175.865 66.7716C176.651 66.9509 177.374 67.3935 177.941 68.0434C178.509 68.6932 178.895 69.5212 179.051 70.4226C179.208 71.324 179.127 72.2583 178.82 73.1074C178.513 73.9565 177.994 74.6822 177.327 75.1928C176.66 75.7034 175.876 75.976 175.073 75.976C173.998 75.9746 172.967 75.4846 172.207 74.6134C171.446 73.7423 171.019 72.5611 171.017 71.3292Z" fill="#1C5739"/>
<path d="M171.017 83.0828C171.017 82.1638 171.255 81.2654 171.701 80.5012C172.147 79.7371 172.78 79.1415 173.521 78.7898C174.262 78.438 175.078 78.346 175.865 78.5253C176.651 78.7046 177.374 79.1472 177.941 79.7971C178.509 80.4469 178.895 81.2749 179.051 82.1763C179.208 83.0777 179.127 84.012 178.82 84.8611C178.513 85.7102 177.994 86.4359 177.327 86.9465C176.66 87.4571 175.876 87.7296 175.073 87.7296C173.998 87.7283 172.967 87.2383 172.207 86.3671C171.446 85.496 171.019 84.3148 171.017 83.0828Z" fill="#1C5739"/>
<path d="M136.83 89.4901L136.317 89.0341L149.449 69.6618H166.624V70.4057H149.767L136.83 89.4901Z" fill="#3F3D56"/>
<path d="M34.8862 98.8312H0V102.393H34.8862V98.8312Z" fill="#3F3D56"/>
<path d="M34.8862 111.952H0V115.513H34.8862V111.952Z" fill="#3F3D56"/>
<path d="M34.8862 123.705H0V127.267H34.8862V123.705Z" fill="#3F3D56"/>
<path d="M43.9523 105.259C43.1501 105.259 42.366 104.986 41.699 104.476C41.032 103.965 40.5121 103.239 40.2052 102.39C39.8982 101.541 39.8179 100.607 39.9744 99.7054C40.1309 98.8041 40.5171 97.9761 41.0844 97.3262C41.6516 96.6763 42.3743 96.2338 43.161 96.0545C43.9478 95.8752 44.7633 95.9672 45.5044 96.3189C46.2455 96.6706 46.879 97.2662 47.3247 98.0304C47.7703 98.7945 48.0082 99.6929 48.0082 100.612C48.0082 101.222 47.9033 101.826 47.6995 102.39C47.4956 102.954 47.1969 103.466 46.8202 103.898C46.4436 104.329 45.9965 104.672 45.5044 104.905C45.0123 105.139 44.4849 105.259 43.9523 105.259Z" fill="#1C5739"/>
<path d="M43.9523 118.379C43.1502 118.379 42.366 118.107 41.699 117.596C41.032 117.085 40.5122 116.36 40.2052 115.511C39.8982 114.662 39.8179 113.727 39.9744 112.826C40.1309 111.924 40.5172 111.096 41.0844 110.447C41.6516 109.797 42.3743 109.354 43.1611 109.175C43.9478 108.996 44.7633 109.088 45.5045 109.439C46.2456 109.791 46.879 110.387 47.3247 111.151C47.7703 111.915 48.0082 112.813 48.0082 113.732C48.0082 114.343 47.9033 114.947 47.6995 115.511C47.4956 116.074 47.1969 116.587 46.8203 117.018C46.4436 117.45 45.9965 117.792 45.5044 118.025C45.0124 118.259 44.485 118.379 43.9523 118.379Z" fill="#1C5739"/>
<path d="M43.9523 130.133C43.1502 130.133 42.366 129.86 41.699 129.35C41.032 128.839 40.5122 128.113 40.2052 127.264C39.8982 126.415 39.8179 125.481 39.9744 124.579C40.1309 123.678 40.5172 122.85 41.0844 122.2C41.6516 121.55 42.3743 121.108 43.1611 120.929C43.9478 120.749 44.7633 120.841 45.5045 121.193C46.2456 121.545 46.879 122.14 47.3247 122.904C47.7703 123.669 48.0082 124.567 48.0082 125.486C48.0082 126.096 47.9033 126.701 47.6995 127.264C47.4956 127.828 47.1969 128.34 46.8203 128.772C46.4436 129.203 45.9965 129.546 45.5044 129.779C45.0124 130.013 44.485 130.133 43.9523 130.133Z" fill="#1C5739"/>
<path d="M82.1963 131.893L69.2587 112.809H52.4022V112.065H69.5766L69.674 112.209L82.7089 131.437L82.1963 131.893Z" fill="#3F3D56"/>
<path d="M156.042 2.866H121.156V6.42759H156.042V2.866Z" fill="#3F3D56"/>
<path d="M156.042 15.9864H121.156V19.548H156.042V15.9864Z" fill="#3F3D56"/>
<path d="M156.042 27.7401H121.156V31.3016H156.042V27.7401Z" fill="#3F3D56"/>
<path d="M108.034 4.64681C108.034 3.72776 108.272 2.82934 108.718 2.06518C109.163 1.30102 109.797 0.705427 110.538 0.353722C111.279 0.00201647 112.094 -0.0900101 112.881 0.0892884C113.668 0.268587 114.391 0.711154 114.958 1.36102C115.525 2.01089 115.911 2.83887 116.068 3.74026C116.224 4.64165 116.144 5.57597 115.837 6.42506C115.53 7.27415 115.01 7.99989 114.343 8.51048C113.676 9.02108 112.892 9.29361 112.09 9.29361C111.015 9.29223 109.984 8.80221 109.223 7.93107C108.463 7.05992 108.035 5.87879 108.034 4.64681Z" fill="#1C5739"/>
<path d="M108.034 17.7672C108.034 16.8482 108.272 15.9497 108.718 15.1856C109.163 14.4214 109.797 13.8258 110.538 13.4741C111.279 13.1224 112.094 13.0304 112.881 13.2097C113.668 13.389 114.391 13.8315 114.958 14.4814C115.525 15.1313 115.911 15.9593 116.068 16.8606C116.224 17.762 116.144 18.6963 115.837 19.5454C115.53 20.3945 115.01 21.1203 114.343 21.6309C113.676 22.1415 112.892 22.414 112.09 22.414C111.015 22.4126 109.984 21.9226 109.223 21.0515C108.463 20.1803 108.035 18.9992 108.034 17.7672Z" fill="#1C5739"/>
<path d="M108.034 29.5209C108.034 28.6018 108.272 27.7034 108.718 26.9392C109.163 26.1751 109.797 25.5795 110.538 25.2278C111.279 24.8761 112.094 24.784 112.881 24.9633C113.668 25.1426 114.391 25.5852 114.958 26.2351C115.525 26.8849 115.911 27.7129 116.068 28.6143C116.224 29.5157 116.144 30.45 115.837 31.2991C115.53 32.1482 115.01 32.8739 114.343 33.3845C113.676 33.8951 112.892 34.1677 112.09 34.1677C111.015 34.1663 109.984 33.6763 109.223 32.8051C108.463 31.934 108.035 30.7528 108.034 29.5209Z" fill="#1C5739"/>
<path d="M73.8461 35.9282L73.3335 35.4721L86.4655 16.0998H103.64V16.8437H86.7834L73.8461 35.9282Z" fill="#3F3D56"/>
<path d="M245.906 224.409H243.715L242.673 214.725H245.907L245.906 224.409Z" fill="#FFB7B7"/>
<path d="M246.465 226.843L239.399 226.843V226.74C239.399 225.905 239.689 225.103 240.205 224.513C240.721 223.922 241.42 223.59 242.149 223.59L246.465 223.59L246.465 226.843Z" fill="#2F2E41"/>
<path d="M236.491 224.409H234.3L233.258 214.725H236.492L236.491 224.409Z" fill="#FFB7B7"/>
<path d="M237.05 226.843L229.984 226.843V226.74C229.984 225.905 230.274 225.103 230.79 224.513C231.306 223.922 232.005 223.59 232.734 223.59L237.05 223.59L237.05 226.843Z" fill="#2F2E41"/>
<path d="M231.503 160.876L228.533 166.286L233.518 220.874L238.726 221.235L239.822 174.088L241.648 199.289L240.927 221.235L246.289 221.533L249.476 189.693L251.875 164.511L247.167 159.49L231.503 160.876Z" fill="#2F2E41"/>
<path d="M245.382 119.504L237.265 119.876L229.745 162.385C229.745 162.385 241.969 169.335 246.922 163.017L249.899 160.519L245.382 119.504Z" fill="#1C5739"/>
<path d="M245.382 119.504L252.524 124.273L249.885 144.239L252.199 164.597L244.684 163.194C244.684 163.194 243.146 144.239 244.144 138.288C245.143 132.337 245.382 119.504 245.382 119.504Z" fill="#3F3D56"/>
<path d="M237.265 119.876L228.719 124.902L229.37 147.014L224.959 163.767C224.959 163.767 233.754 166.991 235.266 161.939C236.778 156.886 237.265 119.876 237.265 119.876Z" fill="#3F3D56"/>
<path d="M248.807 169.635C249.092 169.476 249.344 169.247 249.543 168.965C249.742 168.682 249.885 168.353 249.962 168C250.038 167.648 250.046 167.28 249.985 166.924C249.924 166.567 249.796 166.23 249.609 165.937L252.188 161.088L249.999 158.573L246.44 165.48C246.03 165.872 245.761 166.423 245.682 167.028C245.603 167.633 245.721 168.25 246.013 168.762C246.305 169.274 246.75 169.646 247.265 169.807C247.78 169.968 248.329 169.907 248.807 169.635Z" fill="#FFB7B7"/>
<path d="M248.817 126.993L252.223 123.901C252.223 123.901 255.443 126.921 255.363 129.815C255.284 132.709 256.248 148.125 256.248 148.125L250.934 166.449L246.977 162.822L251.612 148.517L247.96 136.31L248.817 126.993Z" fill="#3F3D56"/>
<path d="M226.803 170.499C226.541 170.295 226.32 170.028 226.157 169.716C225.995 169.404 225.894 169.055 225.861 168.694C225.829 168.333 225.866 167.967 225.97 167.624C226.074 167.281 226.243 166.968 226.464 166.708L224.506 161.491L226.984 159.355L229.658 166.767C230.015 167.221 230.214 167.81 230.218 168.422C230.222 169.033 230.029 169.625 229.677 170.085C229.326 170.545 228.839 170.841 228.309 170.918C227.779 170.994 227.243 170.845 226.803 170.499Z" fill="#FFB7B7"/>
<path d="M232.034 128.28L229.043 124.669C229.043 124.669 225.484 127.139 225.207 130.017C224.93 132.895 222.081 148.003 222.081 148.003L225.089 167.001L229.453 164.049L226.622 149.138L231.738 137.642L232.034 128.28Z" fill="#3F3D56"/>
<path d="M241.582 116.726C244.644 116.726 247.126 113.882 247.126 110.374C247.126 106.866 244.644 104.023 241.582 104.023C238.521 104.023 236.039 106.866 236.039 110.374C236.039 113.882 238.521 116.726 241.582 116.726Z" fill="#FFB7B7"/>
<path d="M240.242 104.735C239.682 104.621 239.128 104.913 238.609 105.179C238.091 105.446 237.511 105.698 236.967 105.507C236.717 105.399 236.492 105.223 236.313 104.995C236.133 104.767 236.004 104.493 235.936 104.196C235.804 103.602 235.757 102.987 235.796 102.375L236.386 102.766L235.983 101.99L241.736 101.261C243.476 101.041 245.428 100.887 246.782 102.16C247.472 102.878 247.974 103.801 248.233 104.827C249.382 108.855 250.686 114.724 244.791 115.921C243.97 115.661 245.309 112.196 245.296 111.219C245.282 110.243 244.813 109.145 243.971 108.995L243.354 109.978C243.749 109.349 242.348 107.306 241.999 106.908C241.686 106.603 241.403 106.26 241.156 105.884C240.877 105.395 240.874 104.862 240.242 104.735Z" fill="#2F2E41"/>
<path d="M265.675 227H207.562C207.476 227 207.393 226.961 207.332 226.891C207.271 226.821 207.237 226.727 207.237 226.628C207.237 226.529 207.271 226.435 207.332 226.365C207.393 226.295 207.476 226.256 207.562 226.256H265.675C265.761 226.256 265.844 226.295 265.905 226.365C265.966 226.435 266 226.529 266 226.628C266 226.727 265.966 226.821 265.905 226.891C265.844 226.961 265.761 227 265.675 227Z" fill="white"/>
</g>
<defs>
<clipPath id="clip0_11_111">
<rect width="266" height="227" fill="white"/>
</clipPath>
</defs>
</svg>
